<svg width="32" height="32" viewBox="0 0 32 32" fill="none" xmlns="http://www.w3.org/2000/svg">
<path d="M23.274 25.9292C23.1912 25.9899 23.1077 26.0495 23.0235 26.1079C22.9084 26.1879 22.792 26.2659 22.6744 26.3417C22.878 26.2104 23.078 26.0728 23.274 25.9292Z" fill="#FDFDFE"/>
<path fill-rule="evenodd" clip-rule="evenodd" d="M15.6563 25.5328C17.6964 25.6063 19.7036 25.0234 21.3843 23.8741L22.8414 25.8598C21.3704 26.8802 19.6884 27.5594 17.9185 27.8458C16.0471 28.1487 14.1306 28.0039 12.326 27.4234C10.5213 26.8429 8.87991 25.8431 7.53616 24.506C6.19241 23.1689 5.18457 21.5324 4.5952 19.7308C4.00582 17.9291 3.85169 16.0134 4.14542 14.1407C4.43915 12.2679 5.17238 10.4914 6.28506 8.9567C7.39774 7.42195 8.8582 6.17262 10.5468 5.31105C12.2354 4.44952 14.104 4.00023 15.9997 4C19.1814 4.00349 22.2318 5.26891 24.4816 7.51862C26.7315 9.76837 27.997 12.8187 28.0004 16.0003L28.0004 17.5385L28.0004 17.5399C28.0045 18.4226 27.7359 19.2851 27.2314 20.0095C26.7268 20.734 26.011 21.285 25.1815 21.5873C24.3521 21.8897 23.4496 21.9286 22.5972 21.6989C21.7448 21.4691 20.9841 20.9818 20.419 20.3036L20.211 20.0539L19.9731 20.2752C18.9844 21.1942 17.7093 21.7445 16.3623 21.8332C15.0154 21.922 13.679 21.5439 12.5783 20.7625C11.4776 19.9812 10.6798 18.8444 10.3194 17.5436C9.95891 16.2428 10.0578 14.8576 10.5994 13.6212C11.141 12.3848 12.0921 11.3728 13.2927 10.7558C14.4932 10.1387 15.8698 9.9542 17.1904 10.2334C18.5111 10.5126 19.6952 11.2384 20.5432 12.2885C21.3913 13.3387 21.8515 14.649 21.8463 15.9988V17.5385C21.8463 18.0281 22.0408 18.4977 22.387 18.8439C22.7333 19.1901 23.2029 19.3846 23.6925 19.3846C24.1822 19.3846 24.6518 19.1901 24.998 18.8439C25.3443 18.4977 25.5388 18.0281 25.5388 17.5385V16C25.5387 13.856 24.8162 11.7745 23.4879 10.0915C22.1596 8.40842 20.303 7.22193 18.2177 6.72344C16.1323 6.22495 13.9398 6.44353 11.9939 7.34391C10.048 8.24429 8.46222 9.77396 7.4924 11.6861C6.52258 13.5983 6.22529 15.7814 6.6485 17.8832C7.07171 19.985 8.19073 21.883 9.82502 23.2709C11.4593 24.6587 13.5135 25.4556 15.6563 25.5328ZM14.1193 18.8142C14.6759 19.1861 15.3304 19.3846 15.9998 19.3846C16.8975 19.3846 17.7584 19.028 18.3932 18.3933C19.028 17.7585 19.3846 16.8977 19.3846 16C19.3846 15.3306 19.1861 14.6762 18.8142 14.1196C18.4422 13.563 17.9136 13.1292 17.2951 12.873C16.6766 12.6168 15.9961 12.5498 15.3395 12.6804C14.6829 12.811 14.0798 13.1334 13.6064 13.6067C13.133 14.0801 12.8107 14.6831 12.68 15.3397C12.5494 15.9962 12.6165 16.6768 12.8727 17.2952C13.1289 17.9137 13.5627 18.4423 14.1193 18.8142Z" fill="#FDFDFE"/>
</svg>
