<svg width="150" height="170" viewBox="0 0 150 170" fill="none" xmlns="http://www.w3.org/2000/svg">
<g clip-path="url(#clip0_3034_80558)">
<path fill-rule="evenodd" clip-rule="evenodd" d="M63.9811 73.2195L26.5244 35.7427C17.7665 46.6678 13.3972 59.9436 13.3972 73.2387C13.3972 86.5338 17.7858 99.8097 26.5244 110.735L63.9811 73.2387V73.2195ZM35.8789 26.3783L73.3356 63.8743L110.773 26.3783C99.8594 17.6112 86.5975 13.2373 73.3164 13.2373C60.0352 13.2373 46.7733 17.6305 35.8597 26.3783H35.8789ZM21.6161 124.993C7.31485 110.696 0.173828 91.9675 0.173828 73.2195C0.173828 54.4714 7.31485 35.7427 21.5969 21.4456C35.8789 7.14853 54.6073 0 73.3164 0C92.0255 0 110.754 7.14853 125.036 21.4456L129.713 26.1278L82.6709 73.2195L122.399 112.989C124.035 114.627 126.191 115.456 128.366 115.456C130.541 115.456 132.697 114.627 134.333 112.989C135.969 111.332 136.796 109.174 136.796 107.016C136.796 104.858 135.969 102.661 134.333 101.024L143.687 91.717C147.922 95.956 150.02 101.486 150.02 107.016C150.02 112.546 147.903 118.115 143.687 122.334H143.668C139.433 126.573 133.909 128.674 128.385 128.674C122.861 128.674 117.298 126.554 113.083 122.334L73.3549 82.5646L26.3127 129.656L21.6354 124.974L21.6161 124.993Z" fill="#FCFEFE"/>
<path fill-rule="evenodd" clip-rule="evenodd" d="M117.817 169.303C116.297 169.303 114.93 168.976 113.698 168.301C112.466 167.627 111.504 166.721 110.811 165.527C110.118 164.351 109.772 163.022 109.772 161.538C109.772 160.054 110.118 158.725 110.83 157.549C111.542 156.374 112.505 155.449 113.717 154.775C114.949 154.1 116.316 153.773 117.837 153.773C119.068 153.773 120.204 153.985 121.205 154.428C122.225 154.852 123.091 155.488 123.784 156.297L121.975 157.993C120.878 156.817 119.55 156.22 117.952 156.22C116.913 156.22 115.989 156.451 115.18 156.894C114.372 157.338 113.717 157.973 113.275 158.783C112.813 159.592 112.582 160.498 112.582 161.519C112.582 162.54 112.813 163.446 113.275 164.255C113.737 165.064 114.372 165.681 115.18 166.143C115.989 166.586 116.932 166.818 117.952 166.818C119.55 166.818 120.878 166.22 121.975 165.026L123.784 166.74C123.072 167.55 122.225 168.186 121.186 168.609C120.166 169.033 119.03 169.245 117.798 169.245M144.052 163.715V169.033H141.261V163.754L135.352 153.966H138.336L142.743 161.307L147.19 153.966H149.942L144.052 163.715ZM95.682 153.966V169.033H93.3723L85.0764 158.821V169.033H82.3046V153.966H84.6144L92.9103 164.178V153.966H95.682ZM68.0803 166.683V169.033H56.7817V153.966H67.7724V156.316H59.5727V160.228H66.8485V162.54H59.5727V166.702H68.0611L68.0803 166.683ZM39.3623 161.326H41.9992V167.338C41.2293 167.954 40.3247 168.436 39.2853 168.764C38.2459 169.091 37.1872 169.265 36.1093 169.265C34.5695 169.265 33.1836 168.937 31.9518 168.263C30.7199 167.588 29.7575 166.683 29.0453 165.488C28.3524 164.313 27.9867 162.983 27.9867 161.499C27.9867 160.016 28.3331 158.686 29.0453 157.511C29.7575 156.336 30.7199 155.411 31.9518 154.736C33.1836 154.062 34.5887 153.734 36.1286 153.734C37.3989 153.734 38.5346 153.946 39.574 154.351C40.6134 154.775 41.4795 155.372 42.1725 156.181L40.4016 157.896C39.2468 156.74 37.8801 156.181 36.2441 156.181C35.1854 156.181 34.2423 156.413 33.4146 156.856C32.5869 157.299 31.9518 157.916 31.4706 158.725C31.0086 159.534 30.7776 160.44 30.7776 161.48C30.7776 162.521 31.0086 163.388 31.4706 164.197C31.9325 165.006 32.5869 165.623 33.4146 166.085C34.2423 166.548 35.1662 166.779 36.2248 166.779C37.3989 166.779 38.4383 166.529 39.3238 166.008V161.307L39.3623 161.326ZM10.9329 163.349L8.10343 156.759L5.29321 163.349H10.9521H10.9329ZM11.8568 165.546H4.36931L2.88721 169.033H0L6.77531 153.966H9.52778L16.3223 169.033H13.3966L11.8953 165.546H11.8568Z" fill="#FCFEFE"/>
</g>
<defs>
<clipPath id="clip0_3034_80558">
<rect width="150" height="169.811" fill="white"/>
</clipPath>
</defs>
</svg>
