<svg width="50" height="51" viewBox="0 0 50 51" fill="none" xmlns="http://www.w3.org/2000/svg">
<path d="M31.5123 25.9055C31.5123 22.3096 28.5973 19.3949 25.0018 19.3949C21.4061 19.3949 18.4914 22.3096 18.4914 25.9055C18.4914 29.501 21.4061 32.416 25.0018 32.416C28.5973 32.416 31.5123 29.501 31.5123 25.9055Z" fill="#AABCD0"/>
<path fill-rule="evenodd" clip-rule="evenodd" d="M24.3509 9.89357C23.9559 9.8934 23.5899 9.89324 23.2496 9.89375V9.88887C19.6096 9.89297 18.9113 9.91738 17.1096 9.99883C15.2053 10.0863 14.1713 10.4037 13.4828 10.6723C12.5713 11.027 11.9203 11.4502 11.2367 12.1338C10.5529 12.8174 10.1291 13.4684 9.775 14.3799C9.50762 15.0684 9.18945 16.102 9.10235 18.0063C9.00879 20.0652 8.99004 20.6805 8.99004 25.8961C8.99004 31.1119 9.00879 31.7303 9.10235 33.7893C9.18906 35.6936 9.50762 36.7272 9.775 37.4149C10.1299 38.3268 10.5529 38.9762 11.2365 39.6598C11.9201 40.3434 12.5713 40.7664 13.4826 41.1205C14.1717 41.3879 15.2053 41.7061 17.1096 41.794C19.1684 41.8875 19.7865 41.9078 25.0018 41.9078C30.2168 41.9078 30.8352 41.8875 32.8941 41.794C34.7984 41.7068 35.8328 41.3895 36.5205 41.1209C37.4324 40.7668 38.0815 40.3438 38.765 39.6602C39.4486 38.977 39.8727 38.3279 40.2266 37.4164C40.494 36.7287 40.8121 35.6951 40.8992 33.7908C40.9928 31.732 41.0131 31.1135 41.0131 25.901C41.0131 20.6885 40.9928 20.0701 40.8992 18.0111C40.8125 16.1068 40.494 15.0732 40.2266 14.3857C39.8717 13.4742 39.4486 12.8232 38.765 12.1397C38.0818 11.4559 37.432 11.0326 36.5205 10.6787C35.832 10.4113 34.7984 10.0932 32.8941 10.0061C30.8348 9.9125 30.2168 9.89375 25.0018 9.89375C24.7764 9.89375 24.5596 9.89366 24.3509 9.89357ZM33.0838 15.4797C33.0838 14.1855 34.1336 13.1367 35.4275 13.1367C36.7215 13.1367 37.7713 14.1857 37.7713 15.4797C37.7713 16.7736 36.7215 17.8234 35.4275 17.8234C34.1336 17.8234 33.0838 16.7736 33.0838 15.4797ZM14.9717 25.9055C14.9717 20.3663 19.4625 15.8754 25.0014 15.8752C30.5406 15.8752 35.0305 20.3664 35.0305 25.9055C35.0305 31.4447 30.541 35.9336 25.0018 35.9336C19.4627 35.9336 14.9717 31.4447 14.9717 25.9055Z" fill="#AABCD0"/>
<path fill-rule="evenodd" clip-rule="evenodd" d="M11.7188 0.905273H38.2813C44.7533 0.905273 50 6.15194 50 12.624V39.1865C50 45.6586 44.7533 50.9053 38.2813 50.9053H11.7188C5.24666 50.9053 0 45.6586 0 39.1865V12.624C0 6.15194 5.24666 0.905273 11.7188 0.905273ZM16.9484 6.49199C19.0316 6.39727 19.6975 6.37402 25.0018 6.37402H24.9957C30.3018 6.37402 30.965 6.39727 33.0484 6.49199C35.1277 6.58711 36.5479 6.91641 37.793 7.39961C39.0787 7.89785 40.1652 8.56524 41.2516 9.65156C42.3381 10.7373 43.0053 11.827 43.5059 13.1117C43.9859 14.3535 44.3156 15.7727 44.4133 17.852C44.5068 19.9354 44.5313 20.601 44.5313 25.9055C44.5313 31.21 44.5068 31.874 44.4133 33.9572C44.3156 36.0357 43.9859 37.4555 43.5059 38.6979C43.0053 39.982 42.3381 41.0717 41.2516 42.1572C40.1664 43.2438 39.0783 43.9127 37.7941 44.4115C36.5514 44.8945 35.1305 45.2236 33.0512 45.319C30.968 45.4137 30.3043 45.4369 24.9994 45.4369C19.6953 45.4369 19.0301 45.4137 16.9467 45.319C14.8678 45.2236 13.4482 44.8945 12.2055 44.4115C10.9217 43.9127 9.83203 43.2438 8.74668 42.1572C7.66074 41.0717 6.99336 39.982 6.49414 38.6973C6.01152 37.4555 5.68242 36.0361 5.58672 33.9568C5.49219 31.8736 5.46875 31.21 5.46875 25.9055C5.46875 20.601 5.49317 19.935 5.58633 17.8516C5.67988 15.7732 6.00938 14.3533 6.49375 13.1111C6.99414 11.827 7.66153 10.7373 8.74805 9.65156C9.8336 8.56563 10.9232 7.89824 12.208 7.39942C13.4498 6.91641 14.8691 6.58731 16.9484 6.49199Z" fill="#AABCD0"/>
</svg>
