<svg width="32" height="32" viewBox="0 0 32 32" fill="none" xmlns="http://www.w3.org/2000/svg">
<path d="M15.9995 30.6663L15.1671 29.936C14.0195 28.9525 3.99951 20.0949 3.99951 13.6158C3.99951 6.83221 9.37211 1.33301 15.9995 1.33301C22.6269 1.33301 27.9995 6.83221 27.9995 13.6158C27.9995 20.095 17.9795 28.9525 16.8367 29.9409L15.9995 30.6663ZM15.9995 3.9889C10.8076 3.99492 6.6002 8.30147 6.59432 13.6157C6.59432 17.6861 12.759 24.1883 15.9995 27.1644C19.2401 24.1871 25.4047 17.6811 25.4047 13.6157C25.3988 8.30147 21.1915 3.99498 15.9995 3.9889Z" fill="#AABCD0"/>
<path d="M15.9993 18.6667C13.0538 18.6667 10.666 16.2788 10.666 13.3333C10.666 10.3878 13.0538 8 15.9993 8C18.9449 8 21.3327 10.3878 21.3327 13.3333C21.3327 16.2788 18.9449 18.6667 15.9993 18.6667ZM15.9993 10.6666C14.5266 10.6666 13.3327 11.8605 13.3327 13.3333C13.3327 14.806 14.5266 15.9999 15.9993 15.9999C17.4721 15.9999 18.666 14.806 18.666 13.3333C18.666 11.8605 17.4722 10.6666 15.9993 10.6666Z" fill="#AABCD0"/>
</svg>
