<svg width="32" height="32" viewBox="0 0 32 32" fill="none" xmlns="http://www.w3.org/2000/svg">
<path d="M26.2714 7.18593L23.0854 4L16.794 10.3015L20.2211 13.7286C18.8442 16.804 16.7136 18.9447 13.7387 20.2312L10.3116 16.804L4 23.0854L7.18593 26.2714C8.30151 27.3869 9.799 28 11.4171 28C18.7035 28 28 18.7035 28 11.4171C28 9.799 27.3869 8.30151 26.2714 7.18593ZM11.4171 25.9899C10.3417 25.9899 9.33668 25.5879 8.61307 24.8543L6.84422 23.0854L10.3015 19.6281L13.2462 22.5729L13.8593 22.3417C17.8392 20.8241 20.7035 17.9699 22.3518 13.8593L22.603 13.2462L19.6583 10.2915L23.1156 6.83417L24.8844 8.60302C25.6181 9.33668 26.0201 10.3317 26.0201 11.407C26.0201 17.6683 17.7085 25.9799 11.4472 25.9799L11.4171 25.9899Z" fill="#AABCD0"/>
</svg>
