<svg width="60" height="61" viewBox="0 0 60 61" fill="none" xmlns="http://www.w3.org/2000/svg">
<g clip-path="url(#clip0_3034_80579)">
<path fill-rule="evenodd" clip-rule="evenodd" d="M30 5.90527C16.1925 5.90527 5 17.0978 5 30.9053C5 35.6303 6.3125 40.0553 8.595 43.8253L6.365 51.4053C6.23696 51.8405 6.22854 52.3021 6.34061 52.7417C6.45269 53.1813 6.68112 53.5826 7.0019 53.9034C7.32268 54.2242 7.72395 54.4526 8.16354 54.5647C8.60313 54.6767 9.06479 54.6683 9.5 54.5403L17.08 52.3103C20.9767 54.668 25.4456 55.9115 30 55.9053C43.8075 55.9053 55 44.7128 55 30.9053C55 17.0978 43.8075 5.90527 30 5.90527ZM24.345 36.5628C29.4025 41.6178 34.23 42.2853 35.935 42.3478C38.5275 42.4428 41.0525 40.4628 42.035 38.1653C42.159 37.8795 42.2041 37.5656 42.1654 37.2564C42.1267 36.9473 42.0057 36.6542 41.815 36.4078C40.445 34.6578 38.5925 33.4003 36.7825 32.1503C36.4046 31.889 35.9402 31.7842 35.4867 31.8578C35.0332 31.9314 34.6258 32.1778 34.35 32.5453L32.85 34.8328C32.7711 34.9558 32.6483 35.0439 32.5065 35.0793C32.3647 35.1146 32.2148 35.0944 32.0875 35.0228C31.07 34.4403 29.5875 33.4503 28.5225 32.3853C27.4575 31.3203 26.5275 29.9053 26.005 28.9528C25.9402 28.8318 25.9215 28.6914 25.9523 28.5576C25.9831 28.4238 26.0613 28.3058 26.1725 28.2253L28.4825 26.5103C28.8122 26.2236 29.0249 25.8258 29.0802 25.3924C29.1356 24.9591 29.0296 24.5205 28.7825 24.1603C27.6625 22.5203 26.3575 20.4353 24.465 19.0528C24.2208 18.8758 23.9347 18.7654 23.6348 18.7325C23.335 18.6997 23.0318 18.7454 22.755 18.8653C20.455 19.8503 18.465 22.3753 18.56 24.9728C18.6225 26.6778 19.29 31.5053 24.345 36.5628Z" fill="#AABCD0"/>
</g>
<defs>
<clipPath id="clip0_3034_80579">
<rect width="60" height="60" fill="white" transform="translate(0 0.905273)"/>
</clipPath>
</defs>
</svg>
