<svg width="671" height="579" viewBox="0 0 671 579" fill="none" xmlns="http://www.w3.org/2000/svg">
<path d="M286.224 326.765L286.078 326.619L282.266 322.815L281.912 323.169L274.288 315.562L274.642 315.208L267.018 307.601L266.664 307.955L259.04 300.348L259.394 299.994L251.77 292.386L251.416 292.74L243.792 285.133L244.146 284.779L236.521 277.172L236.168 277.526L228.544 269.919L228.897 269.565L221.273 261.958L220.92 262.312L213.296 254.704L213.649 254.35L206.025 246.743L205.672 247.097L198.048 239.49L198.401 239.136L190.777 231.529L190.424 231.883L182.8 224.276L183.153 223.922L175.529 216.314L175.176 216.668L167.552 209.061L167.905 208.707L160.281 201.1L159.928 201.454L152.304 193.847L152.657 193.493L145.033 185.886L144.68 186.24L137.056 178.632L137.409 178.278L129.785 170.671L129.432 171.025L121.808 163.418L122.161 163.064L118.349 159.26L117.955 158.867L117.606 159.301C116.421 160.776 115.254 162.26 114.104 163.753L114.501 164.058C112.193 167.056 109.958 170.091 107.795 173.162L107.387 172.874C105.205 175.971 103.096 179.104 101.062 182.271L101.482 182.541C99.4385 185.721 97.469 188.935 95.5737 192.18L95.1419 191.928C93.2325 195.198 91.3981 198.499 89.639 201.829L90.0811 202.063C88.3165 205.403 86.6277 208.773 85.0146 212.17L84.563 211.955C82.9398 215.373 81.3932 218.818 79.923 222.288L80.3834 222.483C78.9105 225.96 77.5145 229.461 76.1954 232.985L75.7271 232.81C74.4013 236.351 73.153 239.916 71.9822 243.5L72.4575 243.655C71.2857 247.242 70.1917 250.849 69.1755 254.474L68.6941 254.339C67.6737 257.979 66.7315 261.636 65.8677 265.308L66.3544 265.422C65.4905 269.094 64.7051 272.781 63.9981 276.48L63.507 276.386C62.7976 280.097 62.167 283.821 61.6151 287.554L62.1098 287.627C61.5584 291.357 61.0857 295.097 60.6918 298.844L60.1945 298.791C59.7996 302.548 59.4837 306.311 59.2468 310.078L59.7458 310.11C59.5092 313.872 59.3515 317.638 59.2726 321.406L58.7727 321.395C58.7332 323.283 58.7135 325.171 58.7135 327.059C58.7135 328.947 58.7333 330.835 58.773 332.722L59.2729 332.711C59.352 336.479 59.5104 340.245 59.7478 344.007L59.2488 344.038C59.4866 347.805 59.8036 351.568 60.1998 355.324L60.697 355.272C61.0922 359.018 61.5662 362.757 62.1191 366.487L61.6245 366.56C62.1779 370.293 62.8101 374.016 63.521 377.727L64.0121 377.632C64.7207 381.331 65.5077 385.017 66.3731 388.688L65.8865 388.803C66.7519 392.474 67.6955 396.131 68.7173 399.77L69.1987 399.634C70.2163 403.258 71.3115 406.865 72.4844 410.451L72.0092 410.607C73.181 414.19 74.4303 417.754 75.7568 421.295L76.2251 421.12C77.5449 424.643 78.9414 428.144 80.4145 431.62L79.9541 431.815C81.4245 435.284 82.9712 438.729 84.5939 442.147L85.0456 441.933C86.6585 445.329 88.3467 448.699 90.1103 452.04L89.6681 452.273C91.4265 455.604 93.2597 458.905 95.1675 462.175L95.5994 461.923C97.4934 465.169 99.4611 468.383 101.503 471.564L101.082 471.834C103.115 475.002 105.221 478.137 107.4 481.235L107.809 480.948C109.969 484.02 112.201 487.057 114.505 490.056L114.109 490.361C115.257 491.855 116.422 493.341 117.606 494.816L117.955 495.251L118.349 494.857L122.161 491.052L121.808 490.698L129.432 483.087L129.785 483.441L137.409 475.829L137.056 475.476L144.68 467.864L145.033 468.218L152.657 460.607L152.304 460.253L159.928 452.642L160.281 452.996L167.905 445.385L167.552 445.031L175.176 437.42L175.529 437.774L183.153 430.163L182.8 429.809L190.424 422.198L190.777 422.552L198.401 414.94L198.048 414.587L205.672 406.976L206.025 407.329L213.65 399.718L213.296 399.364L220.92 391.753L221.274 392.107L228.898 384.496L228.544 384.142L236.168 376.531L236.522 376.885L244.146 369.274L243.792 368.92L251.416 361.309L251.77 361.663L259.394 354.052L259.04 353.698L266.664 346.087L267.018 346.44L274.642 338.829L274.288 338.475L281.912 330.864L282.266 331.218L286.078 327.413L286.224 327.266V327.059V327.037H285.724V326.994H286.224V326.973V326.765ZM159.82 117.823L159.837 117.844L159.82 117.861V117.823ZM158.373 118.296H159.678L163.344 121.956L163.697 121.602L171.321 129.213L170.968 129.567L178.592 137.178L178.945 136.824L186.569 144.435L186.216 144.789L193.84 152.4L194.193 152.046L201.817 159.657L201.464 160.011L209.088 167.622L209.441 167.268L217.065 174.88L216.712 175.233L224.336 182.845L224.689 182.491L232.313 190.102L231.96 190.456L239.584 198.067L239.937 197.713L247.561 205.324L247.208 205.678L254.832 213.289L255.185 212.935L262.809 220.546L262.456 220.9L270.08 228.511L270.433 228.157L278.057 235.769L277.704 236.122L285.328 243.733L285.681 243.38L293.305 250.991L292.952 251.345L300.576 258.956L300.929 258.602L308.553 266.213L308.2 266.567L315.824 274.178L316.177 273.824L323.801 281.435L323.448 281.789L327.26 285.595L327.614 285.947L327.967 285.595L331.777 281.789L331.423 281.435L339.044 273.824L339.397 274.178L347.017 266.567L346.664 266.213L354.284 258.602L354.637 258.956L362.257 251.344L361.904 250.991L369.524 243.38L369.877 243.733L377.497 236.122L377.144 235.768L384.764 228.157L385.118 228.511L392.738 220.9L392.384 220.546L400.004 212.935L400.358 213.289L407.978 205.678L407.625 205.324L415.245 197.713L415.598 198.067L423.218 190.456L422.865 190.102L430.485 182.491L430.838 182.844L438.458 175.233L438.105 174.88L445.725 167.268L446.078 167.622L453.698 160.011L453.345 159.657L460.965 152.046L461.319 152.4L468.939 144.789L468.585 144.435L476.205 136.824L476.559 137.178L484.179 129.567L483.826 129.213L491.446 121.602L491.799 121.956L495.609 118.15L496.004 117.755L495.568 117.406C494.09 116.222 492.602 115.056 491.105 113.907L490.801 114.304C487.796 111.999 484.753 109.766 481.675 107.605L481.962 107.196C478.858 105.017 475.717 102.911 472.543 100.879L472.274 101.3C469.087 99.259 465.866 97.2922 462.613 95.3995L462.865 94.9674C459.589 93.0608 456.281 91.2294 452.943 89.473L452.711 89.9154C449.364 88.1539 445.987 86.4679 442.584 84.8576L442.797 84.4057C439.373 82.7855 435.922 81.2418 432.445 79.7744L432.251 80.235C428.768 78.765 425.261 77.3718 421.731 76.0554L421.906 75.5869C418.358 74.2638 414.788 73.0182 411.198 71.8499L411.044 72.3254C407.451 71.1562 403.838 70.0647 400.208 69.0508L400.342 68.5692C396.697 67.5511 393.035 66.6112 389.358 65.7494L389.244 66.2362C385.567 65.3745 381.875 64.591 378.171 63.8856L378.264 63.3945C374.548 62.6869 370.82 62.0579 367.082 61.5074L367.009 62.0021C363.274 61.452 359.529 60.9806 355.778 60.5877L355.83 60.0904C352.069 59.6965 348.301 59.3814 344.528 59.1451L344.497 59.6441C340.731 59.4082 336.96 59.2509 333.187 59.1722L333.198 58.6723C331.308 58.6329 329.418 58.6132 327.527 58.6132C325.637 58.6132 323.747 58.633 321.857 58.6726L321.868 59.1725C318.096 59.2514 314.325 59.4093 310.559 59.6462L310.527 59.1471C306.755 59.3843 302.988 59.7005 299.227 60.0956L299.279 60.5929C295.528 60.987 291.784 61.4599 288.05 62.0114L287.977 61.5168C284.239 62.0687 280.511 62.6993 276.796 63.4085L276.889 63.8996C273.186 64.6065 269.495 65.3916 265.818 66.255L265.704 65.7682C262.027 66.6315 258.366 67.573 254.721 68.5924L254.856 69.0739C251.226 70.0892 247.614 71.182 244.022 72.3523L243.867 71.8769C240.278 73.0462 236.709 74.2928 233.162 75.6165L233.337 76.085C229.807 77.4021 226.3 78.7958 222.818 80.2661L222.624 79.8054C219.148 81.2731 215.696 82.8168 212.272 84.4366L212.486 84.8886C209.083 86.4987 205.706 88.184 202.359 89.9446L202.127 89.5021C198.789 91.2578 195.481 93.0881 192.204 94.993L192.456 95.4252C189.203 97.3166 185.981 99.2816 182.793 101.32L182.524 100.899C179.349 102.93 176.207 105.033 173.101 107.209L173.388 107.619C170.308 109.777 167.264 112.007 164.257 114.309L163.953 113.912C162.455 115.059 160.966 116.223 159.487 117.406L158.373 118.296ZM92.2523 554.363C89.7574 551.794 87.3132 549.195 84.9195 546.567L85.2892 546.23C82.8813 543.586 80.5248 540.912 78.2196 538.21L77.8392 538.534C75.5152 535.81 73.2433 533.056 71.0235 530.275L71.4143 529.963C69.185 527.17 67.0082 524.349 64.8841 521.501L64.4834 521.8C62.3439 518.932 60.2577 516.037 58.2248 513.116L58.6352 512.83C56.5938 509.897 54.6062 506.938 52.6724 503.955L52.2528 504.227C50.3071 501.225 48.4158 498.198 46.5789 495.148L47.0072 494.89C45.1651 491.832 43.3778 488.749 41.6453 485.645L41.2086 485.889C39.4655 482.765 37.7777 479.619 36.1452 476.453L36.5897 476.223C34.954 473.05 33.374 469.856 31.8495 466.642L31.3978 466.857C29.866 463.627 28.3904 460.378 26.9708 457.11L27.4293 456.911C26.0071 453.637 24.6413 450.345 23.3318 447.036L22.8669 447.22C21.552 443.897 20.2939 440.557 19.0925 437.201L19.5632 437.033C18.3608 433.674 17.2153 430.3 16.1267 426.911L15.6507 427.064C14.5579 423.662 13.5223 420.246 12.544 416.817L13.0248 416.68C12.0463 413.25 11.1252 409.808 10.2614 406.354L9.77631 406.475C8.90979 403.01 8.10089 399.534 7.3496 396.047L7.83838 395.942C7.08718 392.456 6.39368 388.96 5.75785 385.456L5.26588 385.545C4.62843 382.032 4.04886 378.51 3.52718 374.981L4.0218 374.908C3.50043 371.382 3.03696 367.848 2.63138 364.309L2.13463 364.366C1.72817 360.819 1.37976 357.267 1.08941 353.71L1.58775 353.67C1.29771 350.117 1.06568 346.561 0.891653 343.002L0.39225 343.027C0.217913 339.462 0.101693 335.894 0.0435832 332.326L0.543517 332.318C0.514505 330.536 0.5 328.755 0.5 326.973C0.5 325.191 0.5145 323.41 0.543501 321.629L0.0435675 321.621C0.101655 318.053 0.217828 314.486 0.392087 310.922L0.891491 310.946C1.06544 307.388 1.29736 303.832 1.58725 300.281L1.08891 300.24C1.37912 296.684 1.72734 293.133 2.13358 289.587L2.63033 289.643C3.03568 286.105 3.49888 282.572 4.01992 279.046L3.5253 278.973C4.04666 275.445 4.62586 271.923 5.26288 268.411L5.75486 268.5C6.39026 264.996 7.08329 261.501 7.83394 258.016L7.34515 257.91C8.09591 254.425 8.90421 250.949 9.77007 247.484L10.2551 247.606C11.1183 244.152 12.0387 240.71 13.0164 237.281L12.5356 237.144C13.5131 233.715 14.5478 230.3 15.6397 226.898L16.1158 227.051C17.2035 223.663 18.348 220.289 19.5493 216.931L19.0786 216.762C20.2789 213.407 21.5359 210.067 22.8496 206.744L23.3146 206.928C24.6229 203.619 25.9875 200.327 27.4083 197.053L26.9497 196.854C28.368 193.587 29.8423 190.338 31.3726 187.108L31.8244 187.322C33.3474 184.108 34.9259 180.914 36.56 177.741L36.1155 177.512C37.7464 174.345 39.4325 171.199 41.1739 168.076L41.6107 168.319C43.3416 165.215 45.1271 162.132 46.9674 159.073L46.5389 158.815C48.3741 155.765 50.2636 152.738 52.2073 149.736L52.627 150.007C54.559 147.023 56.5446 144.064 58.584 141.13L58.1734 140.845C60.2044 137.923 62.2886 135.028 64.426 132.159L64.827 132.457C66.9491 129.609 69.1237 126.787 71.3509 123.993L70.9599 123.682C73.1777 120.9 75.4475 118.145 77.7692 115.42L78.1499 115.744C80.453 113.041 82.8074 110.366 85.213 107.72L84.8431 107.384C87.2347 104.754 89.6768 102.154 92.1695 99.5845L92.5283 99.9326C93.7678 98.6549 95.0198 97.3848 96.2843 96.1225C97.55 94.8589 98.8236 93.6078 100.105 92.3692L99.7573 92.0097C102.334 89.5191 104.941 87.0789 107.578 84.6894L107.914 85.0599C110.566 82.6567 113.248 80.3047 115.959 78.004L115.635 77.6227C118.368 75.3038 121.129 73.0368 123.919 70.8217L124.23 71.2132C127.03 68.9891 129.859 66.8175 132.715 64.6983L132.417 64.2968C135.293 62.1627 138.196 60.0817 141.124 58.0538L141.409 58.4649C144.349 56.429 147.315 54.4468 150.306 52.5182L150.035 52.098C153.044 50.1578 156.078 48.2718 159.135 46.4401L159.392 46.869C162.457 45.0323 165.546 43.2502 168.657 41.5227L168.415 41.0856C171.544 39.3478 174.696 37.6652 177.869 36.0377L178.098 36.4826C181.277 34.852 184.477 33.2769 187.696 31.7572L187.483 31.3051C190.718 29.7782 193.973 28.3072 197.246 26.892L197.445 27.351C200.724 25.9334 204.021 24.5719 207.335 23.2665L207.152 22.8013C210.48 21.4907 213.825 20.2366 217.185 19.039L217.353 19.51C220.717 18.3114 224.095 17.1695 227.489 16.0843L227.336 15.6081C230.742 14.5187 234.163 13.4863 237.596 12.511L237.732 12.992C241.166 12.0165 244.613 11.0981 248.071 10.2368L247.95 9.75166C251.419 8.88768 254.899 8.08112 258.389 7.33196L258.494 7.82082C261.983 7.07172 265.483 6.38011 268.99 5.74599L268.901 5.25396C272.418 4.61818 275.944 4.0401 279.476 3.51973L279.548 4.01439C283.079 3.49427 286.616 3.03189 290.158 2.62724L290.101 2.13047C293.651 1.7249 297.207 1.37723 300.766 1.08747L300.807 1.58582C304.362 1.29635 307.922 1.06475 311.483 0.891038L311.459 0.391631C315.028 0.217581 318.598 0.101545 322.169 0.0435225L322.178 0.543456C323.961 0.514485 325.744 0.5 327.527 0.5C329.311 0.5 331.094 0.514486 332.877 0.543457L332.885 0.0435225C336.456 0.101545 340.027 0.217581 343.595 0.391631L343.571 0.891038C347.133 1.06475 350.692 1.29635 354.248 1.58582L354.288 1.08747C357.848 1.37723 361.403 1.7249 364.953 2.13047L364.897 2.62724C368.439 3.03189 371.976 3.49428 375.506 4.01439L375.579 3.51973C379.111 4.0401 382.636 4.61818 386.153 5.25396L386.064 5.74599C389.572 6.38011 393.071 7.07173 396.561 7.82083L396.666 7.33197C400.156 8.08112 403.636 8.88769 407.105 9.75166L406.984 10.2368C410.442 11.0981 413.888 12.0165 417.322 12.992L417.459 12.511C420.892 13.4863 424.312 14.5187 427.718 15.6081L427.566 16.0843C430.959 17.1695 434.338 18.3114 437.701 19.51L437.869 19.039C441.23 20.2366 444.575 21.4907 447.902 22.8013L447.719 23.2665C451.034 24.5719 454.331 25.9334 457.61 27.351L457.808 26.892C461.082 28.3072 464.336 29.7782 467.572 31.3051L467.358 31.7572C470.578 33.2769 473.778 34.852 476.957 36.4826L477.185 36.0377C480.358 37.6652 483.51 39.3478 486.64 41.0856L486.397 41.5227C489.508 43.2502 492.597 45.0323 495.663 46.869L495.92 46.44C498.977 48.2718 502.011 50.1578 505.019 52.098L504.748 52.5182C507.739 54.4468 510.705 56.429 513.646 58.4649L513.93 58.0538C516.859 60.0817 519.762 62.1627 522.638 64.2968L522.34 64.6983C525.195 66.8175 528.024 68.9891 530.825 71.2132L531.136 70.8217C533.925 73.0368 536.687 75.3038 539.419 77.6227L539.096 78.004C541.806 80.3047 544.489 82.6567 547.141 85.0599L547.476 84.6894C550.113 87.0789 552.721 89.5191 555.297 92.0097L554.95 92.3692C556.231 93.6078 557.505 94.8589 558.77 96.1225L564.006 101.35L564.36 100.996L574.832 111.45L574.479 111.804L579.36 116.678L575.953 120.079L576.306 120.433L568.783 127.943L568.43 127.59L560.907 135.1L561.26 135.454L553.737 142.965L553.383 142.611L545.86 150.121L546.213 150.475L538.69 157.986L538.337 157.632L530.813 165.142L531.167 165.496L523.643 173.007L523.29 172.653L515.767 180.163L516.12 180.517L508.597 188.028L508.244 187.674L500.72 195.184L501.074 195.538L493.55 203.049L493.197 202.695L485.674 210.206L486.027 210.559L478.504 218.07L478.151 217.716L470.627 225.227L470.981 225.58L463.457 233.091L463.104 232.737L455.581 240.248L455.934 240.602L448.411 248.112L448.057 247.758L440.534 255.269L440.887 255.623L433.364 263.133L433.011 262.779L425.488 270.29L425.841 270.644L418.318 278.154L417.964 277.8L410.441 285.311L410.794 285.665L403.271 293.175L402.918 292.822L395.394 300.332L395.748 300.686L388.224 308.196L387.871 307.843L380.348 315.353L380.701 315.707L373.178 323.218L372.825 322.864L369.063 326.619L368.709 326.973L369.063 327.327L373.106 331.363L373.459 331.009L381.546 339.082L381.193 339.436L389.279 347.508L389.632 347.154L397.718 355.227L397.365 355.581L405.451 363.654L405.805 363.3L413.891 371.372L413.538 371.726L421.624 379.799L421.977 379.445L430.064 387.518L429.71 387.871L437.797 395.944L438.15 395.59L446.236 403.663L445.883 404.017L453.969 412.089L454.323 411.735L462.409 419.808L462.056 420.162L470.142 428.234L470.495 427.881L478.582 435.953L478.228 436.307L486.315 444.38L486.668 444.026L494.754 452.099L494.401 452.452L502.487 460.525L502.841 460.171L510.927 468.244L510.574 468.598L518.66 476.67L519.013 476.316L527.099 484.389L526.746 484.743L534.833 492.816L535.186 492.462L543.272 500.534L542.919 500.888L546.962 504.924C548.767 506.726 550.712 508.312 552.763 509.68L553.041 509.264C557.227 512.055 561.864 513.927 566.666 514.87L566.57 515.36C569.028 515.843 571.529 516.084 574.035 516.084C576.541 516.084 579.042 515.843 581.5 515.36L581.403 514.87C586.206 513.927 590.842 512.055 595.029 509.264L595.306 509.68C597.358 508.312 599.302 506.726 601.107 504.924L601.109 504.922C602.903 503.111 604.482 501.167 605.846 499.122L605.43 498.845C608.23 494.648 610.111 490.023 611.061 485.253L611.551 485.35C612.041 482.891 612.286 480.394 612.286 477.897C612.286 475.401 612.041 472.894 611.552 470.422L611.062 470.519C610.115 465.729 608.241 461.068 605.452 456.871L605.868 456.594C604.589 454.669 603.119 452.841 601.46 451.14L604.597 448.028L604.245 447.673L611.226 440.746L611.578 441.101L618.56 434.175L618.208 433.82L625.189 426.893L625.541 427.248L632.523 420.321L632.171 419.966L639.152 413.04L639.504 413.395L642.641 410.283C644.012 411.665 645.332 413.078 646.601 414.519L646.976 414.188C649.8 417.395 652.374 420.741 654.698 424.201L654.283 424.48C656.645 427.997 658.747 431.633 660.592 435.361L661.04 435.14C662.922 438.946 664.537 442.848 665.885 446.82L665.411 446.981C666.765 450.971 667.848 455.031 668.661 459.133L669.152 459.036C669.973 463.182 670.521 467.371 670.794 471.574L670.295 471.606C670.432 473.701 670.5 475.799 670.5 477.897C670.5 479.995 670.431 482.095 670.294 484.192L670.792 484.225C670.517 488.428 669.966 492.622 669.141 496.774L668.651 496.676C667.835 500.781 666.75 504.846 665.396 508.84L665.869 509C664.521 512.978 662.906 516.886 661.027 520.695L660.579 520.474C658.735 524.212 656.635 527.855 654.279 531.375L654.694 531.653C652.37 535.125 649.798 538.478 646.978 541.685L646.602 541.355C645.269 542.871 643.88 544.355 642.436 545.803H642.35L642.204 545.949C640.705 547.445 639.171 548.88 637.603 550.256L637.933 550.632C634.718 553.453 631.364 556.024 627.896 558.345L627.617 557.929C624.093 560.287 620.45 562.387 616.714 564.228L616.935 564.676C613.122 566.555 609.213 568.166 605.235 569.51L605.075 569.037C601.079 570.387 597.014 571.467 592.906 572.278L593.003 572.769C588.852 573.588 584.658 574.134 580.45 574.407L580.418 573.908C578.321 574.044 576.221 574.112 574.121 574.112C572.02 574.112 569.918 574.043 567.818 573.906L567.786 574.405C563.577 574.13 559.379 573.581 555.222 572.758L555.319 572.268C551.209 571.454 547.139 570.372 543.139 569.021L542.979 569.495C538.995 568.149 535.081 566.539 531.265 564.664L531.486 564.215C527.74 562.375 524.09 560.278 520.563 557.925L520.285 558.341C516.805 556.02 513.444 553.451 510.229 550.634L510.558 550.258C508.987 548.881 507.45 547.445 505.952 545.949L501.909 541.913L501.556 542.266L493.469 534.194L493.822 533.84L485.736 525.767L485.383 526.121L477.297 518.049L477.65 517.695L469.563 509.622L469.21 509.976L461.124 501.903L461.477 501.549L453.391 493.477L453.038 493.831L444.951 485.758L445.305 485.404L437.218 477.332L436.865 477.685L428.779 469.613L429.132 469.259L421.046 461.186L420.692 461.54L412.606 453.467L412.959 453.114L404.873 445.041L404.52 445.395L396.433 437.322L396.787 436.968L388.7 428.896L388.347 429.25L380.261 421.177L380.614 420.823L372.528 412.75L372.174 413.104L364.088 405.032L364.441 404.678L356.355 396.605L356.002 396.959L347.915 388.886L348.269 388.533L340.182 380.46L339.829 380.814L331.743 372.741L332.096 372.387L328.053 368.351L327.7 367.998L327.346 368.351L323.585 372.106L323.938 372.46L316.415 379.971L316.061 379.617L308.538 387.127L308.891 387.481L301.368 394.992L301.015 394.638L293.492 402.148L293.845 402.502L286.322 410.013L285.968 409.659L278.445 417.169L278.798 417.523L271.275 425.034L270.922 424.68L263.399 432.191L263.752 432.544L256.229 440.055L255.875 439.701L248.352 447.212L248.705 447.566L241.182 455.076L240.829 454.722L233.305 462.233L233.659 462.587L226.135 470.097L225.782 469.743L218.259 477.254L218.612 477.608L211.089 485.118L210.736 484.764L203.212 492.275L203.566 492.629L196.042 500.139L195.689 499.785L188.166 507.296L188.519 507.65L180.996 515.16L180.643 514.807L173.119 522.317L173.472 522.671L165.949 530.182L165.596 529.828L158.073 537.338L158.426 537.692L150.903 545.203L150.549 544.849L143.026 552.359L143.379 552.713L135.856 560.224L135.503 559.87L127.98 567.38L128.333 567.734L120.81 575.245L120.456 574.891L117.048 578.293L112.165 573.419L111.812 573.773L101.34 563.318L101.693 562.964L96.4566 557.737L96.1034 557.384L96.0172 557.47C94.8715 556.325 93.7361 555.173 92.611 554.015L92.2523 554.363ZM642.621 546.281V546.303H642.578V546.238L642.621 546.281Z" stroke="#2E5180" stroke-opacity="0.35" stroke-dasharray="11 11"/>
</svg>
