<svg width="61" height="60" viewBox="0 0 61 60" fill="none" xmlns="http://www.w3.org/2000/svg">
<path d="M0.5 3.06487C0.5 3.06487 9.665 -3.26013 19.68 2.26237C23.5125 4.37487 25.13 8.85737 23.7425 12.8124C24.17 13.9474 24.505 15.1199 24.75 16.2824C25.7475 15.2224 26.9125 14.2574 28.2475 13.4424C27.4775 10.4249 28.76 7.15237 31.6075 5.55987C39.51 1.13987 48 6.24987 48 6.24987C46.145 10.9074 42.87 15.3974 38.48 17.8524C36.0875 19.1899 33.2625 18.9549 31.1325 17.5274C27.255 19.7249 25.5 23.7574 25.5 24.9999H20.5C20.5 21.0474 20.095 18.1749 19.5025 16.0199C18.7375 13.9424 16.54 10.7799 16.5 10.7499L16.5175 10.7274C12.345 5.70237 6.75 4.99987 6.75 4.99987C12.1975 11.2249 14.25 13.7499 15.4275 18.7099C13.915 18.7299 12.3825 18.4074 10.9675 17.6274C5.4025 14.5599 3 7.49987 0.5 3.06487ZM58.5875 32.5399L34.12 59.9999H8C3.865 59.9999 0.5 56.6349 0.5 52.4999V34.9999C0.5 30.8649 3.865 27.4999 8 27.4999H32.6425C35.49 27.4999 37.99 29.0224 39.365 31.2974L47.4075 22.4624C48.7575 20.9749 50.61 20.1024 52.62 20.0099C54.65 19.9124 56.555 20.6099 58.0425 21.9649C61.0775 24.7324 61.3225 29.4774 58.5875 32.5399ZM54.675 25.6599C54.1775 25.2074 53.5325 24.9824 52.855 25.0049C52.18 25.0374 51.5575 25.3274 51.1075 25.8274L40.04 37.9874C39.0775 40.6624 36.6925 42.7149 33.755 43.1349L20.8525 44.9774L20.145 40.0274L33.0475 38.1849C34.4475 37.9874 35.4975 36.7724 35.4975 35.3599C35.4975 33.7849 34.215 32.5024 32.64 32.5024H8C6.62 32.5024 5.5 33.6224 5.5 35.0024V52.5024C5.5 53.8824 6.62 55.0024 8 55.0024H31.88L54.855 29.2124C55.775 28.1824 55.6925 26.5899 54.675 25.6599Z" fill="#00A1AF"/>
</svg>
