<svg width="60" height="60" viewBox="0 0 60 60" fill="none" xmlns="http://www.w3.org/2000/svg">
<path d="M40.9553 10.1677C37.9589 7.62824 34.8726 4.99387 31.7489 1.8802L29.9685 0.112305L28.2206 1.88266C22.5974 7.5209 19.9406 16.178 18.787 21.3718C17.904 20.0031 17.2488 18.5004 16.8469 16.9221L15.7907 12.8446L12.7194 15.7312C7.33818 20.7824 3.75001 25.7939 3.75001 33.8192C3.64665 45.7294 11.6588 56.1831 23.1866 59.1787C24.8747 59.5893 26.5978 59.8401 28.3329 59.9277C28.9029 59.969 30.5352 60.0101 30.8149 59.9927C44.9577 59.5673 56.1987 47.9733 56.1868 33.8241C56.1868 23.1021 49.1279 17.1093 40.9553 10.1677ZM30.4521 54.9664C30.1907 54.989 29.953 54.9913 29.6885 54.9889C25.0193 54.8461 21.3049 51.0257 21.2936 46.3544C21.2936 43.1901 22.9906 41.6129 26.8311 38.3438C27.7993 37.5203 28.8525 36.6244 29.9605 35.5987C30.9313 36.4796 31.8745 37.2782 32.7455 38.0193C36.6035 41.2934 38.6174 43.1526 38.6174 46.3469C38.6087 50.9294 35.0275 54.7098 30.4521 54.9664ZM42.9796 50.5468L42.9297 50.5817C43.3776 49.2171 43.6067 47.7904 43.6084 46.3543C43.6084 40.702 39.9 37.5525 35.9772 34.221C34.5872 33.0432 33.1522 31.8254 31.7199 30.3929L29.953 28.6285L28.1886 30.3929C26.5716 32.0075 24.9894 33.355 23.5944 34.5429C19.6814 37.872 16.3 40.7493 16.3 46.3543C16.3052 47.852 16.5583 49.3387 17.0487 50.7538C11.783 46.7104 8.70962 40.4383 8.74115 33.7993C8.70013 29.4202 10.395 25.203 13.4551 22.0703C13.9822 23.1396 14.6071 24.158 15.3218 25.1124C16.3886 26.5519 18.2088 27.2198 19.9535 26.8118C21.7272 26.4169 23.1061 25.0214 23.4797 23.2432C24.5247 17.5076 26.7846 12.062 30.1078 7.27188C32.7406 9.76738 35.3485 11.9759 37.7017 13.9749C45.5176 20.613 51.1776 25.4093 51.1776 33.8143C51.19 40.3623 48.1601 46.5447 42.9772 50.5468H42.9796Z" fill="#00A1AF"/>
</svg>
