<svg width="60" height="60" viewBox="0 0 60 60" fill="none" xmlns="http://www.w3.org/2000/svg">
<path d="M44.9846 5.71519C40.2146 1.45269 33.8096 -0.572312 27.3896 0.147688C17.2596 1.29269 8.97459 9.45519 7.68709 19.5552C6.75209 26.8827 9.29709 33.9552 14.6696 38.9577C18.1071 42.1552 19.9996 46.2077 19.9996 50.3727V60.0002H39.9996V50.7877C39.9996 46.2477 41.7596 42.1002 44.8296 39.4077C49.7046 35.1377 52.4996 28.9752 52.4996 22.5002C52.4996 16.1002 49.7596 9.98269 44.9846 5.71519ZM34.9996 55.0002H24.9996V50.3727C24.9996 50.2477 24.9821 50.1252 24.9796 50.0002H35.0396C35.0296 50.2627 34.9996 50.5227 34.9996 50.7877V55.0002ZM41.5321 35.6477C38.7696 38.0702 36.8121 41.3327 35.7996 45.0002H24.1971C23.1446 41.4252 21.0771 38.0877 18.0771 35.2977C13.8996 31.4077 11.9196 25.9002 12.6496 20.1902C13.6471 12.3452 20.0846 6.00769 27.9521 5.11769C33.0196 4.55019 37.8871 6.08269 41.6521 9.44519C45.3671 12.7652 47.4996 17.5227 47.4996 22.5002C47.4996 27.5327 45.3246 32.3252 41.5321 35.6477ZM39.5846 14.0927L35.9946 16.1602C35.0171 15.2352 33.8221 14.5552 32.4996 14.1577V10.0002H27.4996V14.1577C26.1771 14.5552 24.9821 15.2352 24.0046 16.1602L20.4146 14.0927L17.9196 18.4252L21.5046 20.4902C21.3521 21.1377 21.2496 21.8052 21.2496 22.4977C21.2496 23.1902 21.3521 23.8577 21.5046 24.5052L17.9196 26.5702L20.4146 30.9027L24.0046 28.8352C24.9821 29.7602 26.1771 30.4402 27.4996 30.8377V34.9952H32.4996V30.8377C33.8221 30.4402 35.0171 29.7602 35.9946 28.8352L39.5846 30.9027L42.0796 26.5702L38.4946 24.5052C38.6471 23.8577 38.7496 23.1902 38.7496 22.4977C38.7496 21.8052 38.6471 21.1377 38.4946 20.4902L42.0796 18.4252L39.5846 14.0927ZM29.9996 26.2477C27.9321 26.2477 26.2496 24.5652 26.2496 22.4977C26.2496 20.4302 27.9321 18.7477 29.9996 18.7477C32.0671 18.7477 33.7496 20.4302 33.7496 22.4977C33.7496 24.5652 32.0671 26.2477 29.9996 26.2477Z" fill="#00A1AF"/>
</svg>
