<svg width="60" height="60" viewBox="0 0 60 60" fill="none" xmlns="http://www.w3.org/2000/svg">
<g clip-path="url(#clip0_3001_3172)">
<path d="M41.25 15C41.25 13.87 41.0325 12.8 40.7225 11.7725L44.2725 9.75L41.7975 5.405L38.2575 7.4225C36.7425 5.7725 34.7575 4.5725 32.5 4.055V0H27.5V4.0525C25.2425 4.5675 23.2575 5.77 21.7425 7.42L18.2025 5.4025L15.7275 9.7475L19.2775 11.77C18.9675 12.8 18.75 13.87 18.75 14.9975C18.75 16.125 18.9675 17.1975 19.2775 18.225L15.7275 20.2475L18.2025 24.5925L21.7425 22.575C23.2575 24.225 25.2425 25.425 27.5 25.9425V29.995H32.5V25.9425C34.7575 25.4275 36.7425 24.225 38.2575 22.575L41.7975 24.5925L44.2725 20.2475L40.7225 18.225C41.0325 17.195 41.25 16.1275 41.25 15ZM30 18.75C27.9325 18.75 26.25 17.0675 26.25 15C26.25 12.9325 27.9325 11.25 30 11.25C32.0675 11.25 33.75 12.9325 33.75 15C33.75 17.0675 32.0675 18.75 30 18.75ZM16.25 55V60H0V55C0 52.2375 2.2375 50 5 50H11.25C14.0125 50 16.25 52.2375 16.25 55ZM55 50H48.75C45.9875 50 43.75 52.2375 43.75 55V60H60V55C60 52.2375 57.7625 50 55 50ZM33.75 50H26.25C23.4875 50 21.25 52.2375 21.25 55V60H38.75V55C38.75 52.2375 36.5125 50 33.75 50ZM51.9225 47.5C55.375 47.5 58.1725 44.7025 58.1725 41.25C58.1725 37.7975 55.375 35 51.9225 35C48.47 35 45.6725 37.7975 45.6725 41.25C45.6725 44.7025 48.47 47.5 51.9225 47.5ZM30 47.5C33.4525 47.5 36.25 44.7025 36.25 41.25C36.25 37.7975 33.4525 35 30 35C26.5475 35 23.75 37.7975 23.75 41.25C23.75 44.7025 26.5475 47.5 30 47.5ZM8.0775 47.5C11.53 47.5 14.3275 44.7025 14.3275 41.25C14.3275 37.7975 11.53 35 8.0775 35C4.625 35 1.8275 37.7975 1.8275 41.25C1.8275 44.7025 4.625 47.5 8.0775 47.5ZM47.3025 17.5C47.42 16.6825 47.5025 15.85 47.5025 15C47.5025 14.15 47.42 13.3175 47.3025 12.5H52.5025C56.6375 12.5 60.0025 15.865 60.0025 20V33.45C58.6475 32.0475 56.925 31.0325 55.0025 30.4825V20C55.0025 18.62 53.8825 17.5 52.5025 17.5H47.3025ZM0 33.45V20C0 15.865 3.365 12.5 7.5 12.5H12.7C12.5825 13.3175 12.5 14.15 12.5 15C12.5 15.85 12.5825 16.6825 12.7 17.5H7.5C6.12 17.5 5 18.62 5 20V30.4825C3.0775 31.035 1.355 32.05 0 33.45Z" fill="#00A1AF"/>
</g>
<defs>
<clipPath id="clip0_3001_3172">
<rect width="60" height="60" fill="white"/>
</clipPath>
</defs>
</svg>
