<svg width="60" height="60" viewBox="0 0 60 60" fill="none" xmlns="http://www.w3.org/2000/svg">
<g clip-path="url(#clip0_3001_4042)">
<path d="M25 45C25 47.555 25.4975 49.9875 26.37 52.235L6.6675 37.5H0V32.5H8.3325L25.0025 44.965C25.0025 44.965 25.0025 44.9875 25.0025 45H25ZM53.09 5L45.7175 1.3125C41.1425 -0.9725 35.3325 -0.115 31.62 3.385L30.075 4.84L28.325 3.245C26.03 1.1525 23.0525 0 19.85 0C17.93 0 16.005 0.455 14.2825 1.3125L6.91 5H0V10H8.09L16.515 5.785C19.085 4.5 22.66 4.85 24.955 6.94L26.42 8.275L19.8025 14.505C17.1225 17.185 16.6925 21.4175 18.8075 24.3525C20.1075 26.1575 22.115 27.295 24.31 27.475C24.515 27.49 24.7175 27.5 24.92 27.5C26.9025 27.5 28.805 26.72 30.18 25.3425L32.6925 22.9375L37.4325 26.4925C39.43 25.675 41.595 25.1875 43.855 25.06L36.355 19.435L40.575 15.395L37.1175 11.7825L26.6825 21.77C26.165 22.29 25.4425 22.5625 24.7125 22.495C23.97 22.435 23.3125 22.06 22.865 21.4375C22.18 20.485 22.39 18.9975 23.285 18.1L35.0475 7.0275C37.2675 4.9375 40.7475 4.4225 43.4825 5.79L51.91 10.005H60V5.005H53.09V5ZM60 45C60 53.2725 53.2725 60 45 60C36.7275 60 30 53.2725 30 45C30 36.7275 36.7275 30 45 30C53.2725 30 60 36.7275 60 45ZM55 45C55 39.485 50.515 35 45 35C39.485 35 35 39.485 35 45C35 50.515 39.485 55 45 55C50.515 55 55 50.515 55 45ZM43.595 45.8075L40.49 42.8L37.01 46.39L40.8475 50.105C41.58 50.845 42.5575 51.25 43.5975 51.25C44.6375 51.25 45.615 50.845 46.3325 50.1275L52.985 43.5975L49.4825 40.0275L43.595 45.8075Z" fill="#00A1AF"/>
</g>
<defs>
<clipPath id="clip0_3001_4042">
<rect width="60" height="60" fill="white"/>
</clipPath>
</defs>
</svg>
