<svg width="28" height="28" viewBox="0 0 28 28" fill="none" xmlns="http://www.w3.org/2000/svg">
<mask id="path-1-inside-1_1100_7450" fill="white">
<path d="M14 18.7863C13.6476 18.787 13.2986 18.7179 12.9729 18.5832C12.6473 18.4485 12.3515 18.2507 12.1026 18.0013L5 10.8974L6.89742 9L14 16.1026L21.1026 9L23 10.8974L15.8974 18C15.6486 18.2496 15.3528 18.4476 15.0272 18.5826C14.7016 18.7175 14.3525 18.7868 14 18.7863Z"/>
</mask>
<path d="M14 18.7863C13.6476 18.787 13.2986 18.7179 12.9729 18.5832C12.6473 18.4485 12.3515 18.2507 12.1026 18.0013L5 10.8974L6.89742 9L14 16.1026L21.1026 9L23 10.8974L15.8974 18C15.6486 18.2496 15.3528 18.4476 15.0272 18.5826C14.7016 18.7175 14.3525 18.7868 14 18.7863Z" fill="#FDFDFE"/>
<path d="M14 18.7863L14.0265 -2.54697L13.9947 -2.54701L13.9629 -2.54696L14 18.7863ZM12.1026 18.0013L27.2011 2.92996L27.195 2.92389L27.1889 2.91782L12.1026 18.0013ZM5 10.8974L-10.085 -4.18752L-25.1685 10.896L-10.0864 25.9809L5 10.8974ZM6.89742 9L21.9824 -6.08494L6.89741 -21.1699L-8.18753 -6.08494L6.89742 9ZM14 16.1026L-1.08495 31.1875L14 46.2725L29.0849 31.1875L14 16.1026ZM21.1026 9L36.1875 -6.08495L21.1026 -21.1699L6.01763 -6.08494L21.1026 9ZM23 10.8974L38.0849 25.9824L53.1699 10.8974L38.0849 -4.18753L23 10.8974ZM15.8974 18L0.812475 2.91505L0.800359 2.92717L0.788263 2.93931L15.8974 18ZM13.9629 -2.54696C16.4214 -2.55124 18.8567 -2.06959 21.1286 -1.12966L4.81734 38.2961C7.74047 39.5054 10.8738 40.1252 14.0371 40.1196L13.9629 -2.54696ZM21.1286 -1.12966C23.4005 -0.189732 25.4642 1.18992 27.2011 2.92996L-2.99592 33.0727C-0.761092 35.3116 1.89419 37.0867 4.81734 38.2961L21.1286 -1.12966ZM27.1889 2.91782L20.0864 -4.1861L-10.0864 25.9809L-2.98379 33.0849L27.1889 2.91782ZM20.085 25.9824L21.9824 24.0849L-8.18753 -6.08494L-10.085 -4.18752L20.085 25.9824ZM-8.18753 24.0849L-1.08495 31.1875L29.0849 1.01764L21.9824 -6.08494L-8.18753 24.0849ZM29.0849 31.1875L36.1875 24.0849L6.01763 -6.08494L-1.08495 1.01764L29.0849 31.1875ZM6.01764 24.0849L7.91506 25.9824L38.0849 -4.18753L36.1875 -6.08495L6.01764 24.0849ZM7.91506 -4.18752L0.812475 2.91505L30.9824 33.0849L38.0849 25.9824L7.91506 -4.18752ZM0.788263 2.93931C2.52442 1.19756 4.58778 -0.183812 6.8597 -1.12536L23.1947 38.2905C26.1179 37.0791 28.7727 35.3017 31.0066 33.0607L0.788263 2.93931ZM6.8597 -1.12536C9.13158 -2.06689 11.5672 -2.55003 14.0265 -2.54697L13.9735 40.1197C17.1378 40.1236 20.2716 39.502 23.1947 38.2905L6.8597 -1.12536Z" fill="#FDFDFE" mask="url(#path-1-inside-1_1100_7450)"/>
</svg>
