<svg width="23" height="23" viewBox="0 0 23 23" fill="none" xmlns="http://www.w3.org/2000/svg">
<path d="M12.9751 2.08606L21.064 11.4194L12.9751 20.7527" stroke="#231F20" stroke-width="2.4" stroke-linecap="square"/>
<path d="M21.064 12.6194C21.7267 12.6194 22.264 12.0822 22.264 11.4194C22.264 10.7567 21.7267 10.2194 21.064 10.2194L21.064 12.6194ZM4.58786 17.1305L5.78786 17.1305L5.78786 14.7305L4.58786 14.7305L4.58786 17.1305ZM21.064 10.2194L5.21008 10.2194L5.21008 12.6194L21.064 12.6194L21.064 10.2194ZM5.21008 10.2194L4.03063 10.2194L4.03063 12.6194L5.21008 12.6194L5.21008 10.2194ZM4.03063 17.1305L4.58786 17.1305L4.58786 14.7305L4.03063 14.7305L4.03063 17.1305ZM0.575076 13.675C0.575076 15.5834 2.12218 17.1305 4.03063 17.1305L4.03063 14.7305C3.44766 14.7305 2.97508 14.258 2.97508 13.675L0.575076 13.675ZM4.03063 10.2194C2.12218 10.2194 0.575076 11.7665 0.575076 13.675L2.97508 13.675C2.97508 13.092 3.44767 12.6194 4.03063 12.6194L4.03063 10.2194Z" fill="#231F20"/>
</svg>
