<svg width="535" height="696" viewBox="0 0 535 696" fill="none" xmlns="http://www.w3.org/2000/svg">
<g clip-path="url(#clip0_3001_9386)">
<mask id="mask0_3001_9386" style="mask-type:alpha" maskUnits="userSpaceOnUse" x="-14" y="-30" width="549" height="726">
<rect x="-14" y="-30" width="549" height="726" fill="url(#paint0_linear_3001_9386)"/>
</mask>
<g mask="url(#mask0_3001_9386)">
<g opacity="0.2">
<g filter="url(#filter0_d_3001_9386)">
<path d="M-128.824 696L-129.443 695.487C-147.36 680.42 -164.129 663.585 -179.254 645.423C-237.9 574.863 -270.201 485.451 -270.201 393.67C-270.201 301.888 -237.565 211.486 -178.318 140.873C-163.175 122.711 -146.353 105.893 -128.294 90.9149C-57.8801 32.2915 31.4232 0 123.147 0C214.871 0 304.263 32.2915 374.695 90.9149C392.524 105.805 409.381 122.605 424.824 140.873L425.336 141.492L424.771 142.058L374.765 192.104L174.301 392.626L388.071 606.571C396.217 613.98 406.836 618.083 417.968 618.083C442.617 618.083 462.673 598.011 462.673 573.342H464.422C464.422 598.984 443.589 619.834 417.968 619.834C406.394 619.834 395.351 615.572 386.852 607.844L171.828 392.644L172.446 392.025L373.529 190.884L422.969 141.403C407.737 123.454 391.128 106.919 373.581 92.2766C303.468 33.9008 214.518 1.75074 123.147 1.75074C31.7766 1.75074 -57.0673 33.9008 -127.181 92.2589C-145.151 107.184 -161.902 123.914 -176.975 141.987C-235.974 212.3 -268.451 301.676 -268.451 393.67C-268.451 485.663 -236.292 574.049 -177.911 644.309C-163.016 662.17 -146.547 678.758 -128.93 693.63L-79.4903 644.15L59.4828 505.134L60.7197 506.372L-78.2534 645.388L-128.824 696.018V696ZM417.968 690.323C407.136 690.323 396.446 688.82 386.162 685.849C367.097 680.579 349.533 670.287 335.362 656.104L229.307 549.963L123.253 443.822L114.966 452.116L113.729 450.878L123.253 441.346L229.926 548.106L336.599 654.866C350.54 668.837 367.857 678.952 386.64 684.152C396.764 687.069 407.296 688.555 417.968 688.555V690.306V690.323ZM500.734 656.051L499.497 654.813C521.231 633.079 533.211 604.148 533.211 573.342C533.211 542.536 522.167 515.921 502.094 494.682C501.44 493.957 500.751 493.25 500.044 492.542L450.852 541.775L449.615 540.538L500.044 490.067L500.663 490.686C501.599 491.623 502.536 492.56 503.384 493.515C523.74 515.072 534.96 543.438 534.96 573.36C534.96 603.281 522.803 634.017 500.734 656.069V656.051ZM-128.736 596.119L-129.337 595.359C-174.819 538.309 -199.857 466.688 -199.857 393.67C-199.857 320.651 -174.483 248.057 -128.4 190.849L-127.8 190.088L74.5905 392.644L-128.736 596.137V596.119ZM-127.658 192.706C-173.087 249.49 -198.108 320.81 -198.108 393.67C-198.108 466.529 -173.423 536.877 -128.577 593.502L72.1167 392.644L-127.676 192.688L-127.658 192.706ZM123.253 344.03L122.635 343.411L-79.0486 141.563L-78.2888 140.944C-21.4096 95.442 50.1178 70.3657 123.13 70.3657C196.141 70.3657 267.651 95.4243 324.654 140.944L325.414 141.545L123.236 343.995L123.253 344.03ZM-76.4158 141.722L123.253 341.554L322.816 141.722C266.255 96.8391 195.381 72.1342 123.147 72.1342C50.913 72.1342 -19.9784 96.8391 -76.4158 141.722Z" fill="white"/>
</g>
</g>
<g opacity="0.8" filter="url(#filter1_d_3001_9386)">
<path d="M499.497 654.813L500.733 656.051V656.069C522.803 634.017 534.96 603.281 534.96 573.36C534.96 543.438 523.74 515.072 503.384 493.515C502.536 492.56 501.599 491.623 500.663 490.686L500.044 490.067L449.615 540.538L450.852 541.775L500.044 492.542C500.751 493.25 501.44 493.957 502.094 494.682C522.167 515.921 533.211 542.536 533.211 573.342C533.211 604.148 521.231 633.079 499.497 654.813Z" fill="white"/>
</g>
</g>
</g>
<defs>
<filter id="filter0_d_3001_9386" x="-285.201" y="-15" width="835.161" height="726.018" filterUnits="userSpaceOnUse" color-interpolation-filters="sRGB">
<feFlood flood-opacity="0" result="BackgroundImageFix"/>
<feColorMatrix in="SourceAlpha" type="matrix" values="0 0 0 0 0 0 0 0 0 0 0 0 0 0 0 0 0 0 127 0" result="hardAlpha"/>
<feOffset/>
<feGaussianBlur stdDeviation="7.5"/>
<feComposite in2="hardAlpha" operator="out"/>
<feColorMatrix type="matrix" values="0 0 0 0 1 0 0 0 0 1 0 0 0 0 1 0 0 0 0.85 0"/>
<feBlend mode="normal" in2="BackgroundImageFix" result="effect1_dropShadow_3001_9386"/>
<feBlend mode="normal" in="SourceGraphic" in2="effect1_dropShadow_3001_9386" result="shape"/>
</filter>
<filter id="filter1_d_3001_9386" x="438.615" y="479.067" width="107.345" height="188.002" filterUnits="userSpaceOnUse" color-interpolation-filters="sRGB">
<feFlood flood-opacity="0" result="BackgroundImageFix"/>
<feColorMatrix in="SourceAlpha" type="matrix" values="0 0 0 0 0 0 0 0 0 0 0 0 0 0 0 0 0 0 127 0" result="hardAlpha"/>
<feOffset/>
<feGaussianBlur stdDeviation="5.5"/>
<feComposite in2="hardAlpha" operator="out"/>
<feColorMatrix type="matrix" values="0 0 0 0 1 0 0 0 0 1 0 0 0 0 1 0 0 0 1 0"/>
<feBlend mode="normal" in2="BackgroundImageFix" result="effect1_dropShadow_3001_9386"/>
<feBlend mode="normal" in="SourceGraphic" in2="effect1_dropShadow_3001_9386" result="shape"/>
</filter>
<linearGradient id="paint0_linear_3001_9386" x1="-14" y1="141" x2="535" y2="141" gradientUnits="userSpaceOnUse">
<stop stop-color="#D9D9D9" stop-opacity="0"/>
<stop offset="0.192645" stop-color="#737373"/>
</linearGradient>
<clipPath id="clip0_3001_9386">
<rect width="534.942" height="696" fill="white"/>
</clipPath>
</defs>
</svg>
