<svg
        width="26.838623"
        height="26.837891"
        viewBox="0 0 26.8386 26.8379"
        fill="none"
        xmlns="http://www.w3.org/2000/svg"
        xmlns:xlink="http://www.w3.org/1999/xlink">
    <defs/>
    <path
            id="Vector 1"
            d="M7.91 5.71L20.23 6.59L21.11 18.91"
            stroke="#F1F2F8"
            stroke-opacity="1.000000"
            stroke-width="2.000000"
            stroke-linecap="square"
    />
    <path
            id="Vector 2"
          d="M20.94 7.3L9.73 18.51L8.9 19.35Q8.79 19.45 8.71 19.58Q8.66 19.67 8.62 19.76Q8.58 19.86 8.56 19.97Q8.53 20.1 8.53 20.23Q8.53 20.37 8.56 20.5Q8.58 20.61 8.62 20.71Q8.66 20.8 8.71 20.89Q8.79 21.01 8.9 21.12Q9 21.23 9.13 21.31Q9.22 21.36 9.31 21.4Q9.41 21.44 9.52 21.46Q9.65 21.49 9.78 21.49Q9.92 21.49 10.05 21.46Q10.16 21.44 10.26 21.4Q10.35 21.36 10.44 21.31Q10.56 21.23 10.67 21.12L11.05 20.74L11.77 20.02L13.19 21.43L12.48 22.14L12.09 22.54Q11.84 22.79 11.54 22.98Q11.29 23.14 11.01 23.25Q10.73 23.37 10.43 23.42Q10.12 23.49 9.78 23.49Q9.45 23.49 9.13 23.42Q8.84 23.37 8.56 23.25Q8.28 23.14 8.03 22.98Q7.73 22.79 7.48 22.54Q7.23 22.28 7.04 21.99Q6.88 21.74 6.77 21.46Q6.65 21.18 6.59 20.88Q6.53 20.57 6.53 20.23Q6.53 19.9 6.59 19.58Q6.65 19.29 6.77 19.01Q6.88 18.73 7.04 18.48Q7.23 18.18 7.48 17.93L8.32 17.1L19.53 5.89C19.92 5.49 20.55 5.49 20.94 5.89C21.34 6.28 21.34 6.91 20.94 7.3Z"
            fill="#F1F2F8"
            fill-opacity="1.000000"
            fill-rule="evenodd"
    />
</svg>

