<svg width="28" height="28" viewBox="0 0 28 28" fill="none" xmlns="http://www.w3.org/2000/svg">
<path d="M9.05812 6.49754L21.3775 7.37749L22.2575 19.6969" stroke="#231F20" stroke-width="2.4" stroke-linecap="square"/>
<path d="M22.226 8.22597C22.6946 7.75734 22.6946 6.99754 22.226 6.52891C21.7573 6.06028 20.9975 6.06028 20.5289 6.52891L22.226 8.22597ZM13.7654 23.0662L14.614 22.2176L12.9169 20.5206L12.0684 21.3691L13.7654 23.0662ZM20.5289 6.52891L9.31853 17.7393L11.0156 19.4364L22.226 8.22597L20.5289 6.52891ZM9.31853 17.7393L8.48453 18.5733L10.1816 20.2704L11.0156 19.4364L9.31853 17.7393ZM13.3714 23.4602L13.7654 23.0662L12.0684 21.3691L11.6744 21.7631L13.3714 23.4602ZM8.48453 23.4602C9.83401 24.8097 12.0219 24.8097 13.3714 23.4602L11.6744 21.7631C11.2621 22.1754 10.5938 22.1754 10.1816 21.7631L8.48453 23.4602ZM8.48453 18.5733C7.13505 19.9228 7.13505 22.1107 8.48453 23.4602L10.1816 21.7631C9.76936 21.3509 9.76936 20.6826 10.1816 20.2704L8.48453 18.5733Z" fill="#231F20"/>
</svg>
