<svg width="36" height="44" viewBox="0 0 36 44" fill="none" xmlns="http://www.w3.org/2000/svg">
<path d="M30.9008 9.62598L18.9688 21.3185H35.9999L30.9008 9.62598Z" fill="#8ca5bf"/>
<path d="M30.9008 34.0103L18.9688 22.3177H35.9999L30.9008 34.0103Z" fill="#8ca5bf"/>
<path d="M18.4323 4.10908L18.3602 20.7161L30.4031 8.81322L18.4323 4.10908Z" fill="#8ca5bf"/>
<path d="M18.4323 39.5271L18.3602 22.9201L30.4031 34.823L18.4323 39.5271Z" fill="#8ca5bf"/>
<path d="M17.4778 4.10908L17.5499 20.7161L5.5071 8.81322L17.4778 4.10908Z" fill="#8ca5bf"/>
<path d="M17.4778 39.5271L17.5499 22.9201L5.5071 34.823L17.4778 39.5271Z" fill="#8ca5bf"/>
<path d="M5.09924 9.62598L17.0312 21.3185H8.96454e-05L5.09924 9.62598Z" fill="#8ca5bf"/>
<path d="M5.09924 34.0103L17.0312 22.3177H8.96454e-05L5.09924 34.0103Z" fill="#8ca5bf"/>
</svg>
