<svg width="806" height="697" viewBox="0 0 806 697" fill="none" xmlns="http://www.w3.org/2000/svg">
<g opacity="0.2">
<path d="M142.116 696L141.498 695.487C123.581 680.42 106.812 663.585 91.6868 645.423C33.0407 574.863 0.740234 485.451 0.740234 393.67C0.740234 301.888 33.3764 211.486 92.6233 140.873C107.766 122.711 124.588 105.893 142.647 90.9149C213.061 32.2915 302.364 0 394.088 0C485.812 0 575.204 32.2915 645.636 90.9149C663.464 105.805 680.322 122.605 695.765 140.873L696.277 141.492L695.712 142.058L645.706 192.104L445.242 392.626L659.012 606.571C667.158 613.98 677.777 618.083 688.909 618.083C713.558 618.083 733.614 598.011 733.614 573.342H735.363C735.363 598.984 714.53 619.834 688.909 619.834C677.335 619.834 666.292 615.572 657.792 607.844L442.768 392.644L443.387 392.025L644.469 190.884L693.91 141.403C678.678 123.454 662.069 106.919 644.522 92.2765C574.409 33.9008 485.459 1.75074 394.088 1.75074C302.717 1.75074 213.874 33.9008 143.76 92.2589C125.79 107.184 109.039 123.914 93.9662 141.987C34.9667 212.3 2.48955 301.676 2.48955 393.67C2.48955 485.663 34.6486 574.049 93.0297 644.309C107.925 662.17 124.394 678.758 142.01 693.63L191.451 644.15L330.424 505.134L331.661 506.372L192.687 645.388L142.116 696.018V696ZM688.909 690.323C678.077 690.323 667.387 688.82 657.103 685.849C638.038 680.579 620.474 670.287 606.303 656.104L500.248 549.963L394.194 443.822L385.907 452.116L384.67 450.878L394.194 441.346L500.867 548.106L607.539 654.866C621.481 668.837 638.797 678.952 657.58 684.152C667.705 687.069 678.236 688.555 688.909 688.555V690.306V690.323ZM771.674 656.051L770.438 654.813C792.171 633.079 804.152 604.148 804.152 573.342C804.152 542.536 793.108 515.921 773.035 494.682C772.381 493.957 771.692 493.25 770.985 492.542L721.793 541.775L720.556 540.538L770.985 490.067L771.604 490.686C772.54 491.623 773.477 492.56 774.325 493.515C794.681 515.072 805.901 543.438 805.901 573.36C805.901 603.281 793.744 634.017 771.674 656.069V656.051ZM142.205 596.119L141.604 595.359C96.1219 538.309 71.0838 466.688 71.0838 393.67C71.0838 320.651 96.4576 248.057 142.541 190.849L143.141 190.088L345.531 392.644L142.205 596.137V596.119ZM143.283 192.706C97.8536 249.49 72.8331 320.81 72.8331 393.67C72.8331 466.529 97.5178 536.877 142.364 593.502L343.058 392.644L143.265 192.688L143.283 192.706ZM394.194 344.03L393.576 343.411L191.892 141.563L192.652 140.944C249.531 95.442 321.059 70.3657 394.07 70.3657C467.082 70.3657 538.592 95.4243 595.595 140.944L596.354 141.545L394.176 343.995L394.194 344.03ZM194.525 141.722L394.194 341.554L593.757 141.722C537.196 96.8391 466.322 72.1342 394.088 72.1342C321.854 72.1342 250.963 96.8391 194.525 141.722Z" fill="url(#paint0_linear_1200_13260)"/>
</g>
<defs>
<linearGradient id="paint0_linear_1200_13260" x1="805.901" y1="348.009" x2="-8.99998" y2="348" gradientUnits="userSpaceOnUse">
<stop offset="0.506391" stop-color="white"/>
<stop offset="0.672353" stop-color="white" stop-opacity="0"/>
</linearGradient>
</defs>
</svg>
