<svg width="300" height="66" viewBox="0 0 300 66" fill="none" xmlns="http://www.w3.org/2000/svg">
<g clip-path="url(#clip0_1100_7435)">
<path fill-rule="evenodd" clip-rule="evenodd" d="M140.451 21.7912L129.497 10.8916C126.933 14.072 125.657 17.9261 125.657 21.7912C125.657 25.6563 126.933 29.5104 129.497 32.6908L140.451 21.7912ZM132.227 8.17499L143.181 19.0746L154.135 8.17499C150.939 5.62402 147.065 4.35406 143.181 4.35406C139.296 4.35406 135.423 5.62402 132.227 8.17499ZM128.054 36.843C123.881 32.6908 121.783 27.2355 121.783 21.7912C121.783 16.3469 123.87 10.8916 128.054 6.73938C132.227 2.58716 137.709 0.5 143.181 0.5C148.652 0.5 154.135 2.57611 158.308 6.73938L159.673 8.09769L145.911 21.7912L157.531 33.3534C158.008 33.8282 158.641 34.0712 159.273 34.0712C159.906 34.0712 160.539 33.8282 161.016 33.3534C161.493 32.8675 161.737 32.238 161.737 31.6196C161.737 31.0012 161.493 30.3607 161.016 29.8748L163.746 27.1692C164.978 28.395 165.6 30.0073 165.6 31.6196C165.6 33.2319 164.978 34.8442 163.746 36.07C162.514 37.2958 160.894 37.9142 159.273 37.9142C157.653 37.9142 156.033 37.2958 154.801 36.07L143.181 24.5078L129.419 38.2013L128.054 36.843Z" fill="#FDFDFE"/>
<path fill-rule="evenodd" clip-rule="evenodd" d="M66.1683 37.5609L66.1239 14.4255L54.5927 33.6958H52.4951L40.9639 14.558V37.5609H36.5801V5.80078H40.3202L53.6383 28.119L66.7676 5.80078H70.5078L70.5522 37.5609H66.1683Z" fill="#FDFDFE"/>
<path fill-rule="evenodd" clip-rule="evenodd" d="M98.7199 33.8835C101.306 33.8835 103.248 33.4639 104.558 32.6136C105.867 31.7632 106.522 30.4381 106.522 28.627C106.522 25.0932 103.925 23.3152 98.731 23.3152H88.2431V33.8835H98.731H98.7199ZM88.232 9.47815V19.6379H97.5768C99.9186 19.6379 101.716 19.2072 102.982 18.3458C104.247 17.4844 104.868 16.2255 104.868 14.558C104.868 12.8905 104.236 11.6316 102.982 10.7702C101.716 9.90883 99.9186 9.47815 97.5768 9.47815H88.232ZM105.146 21.0955C106.999 21.6146 108.453 22.5422 109.519 23.8895C110.584 25.2367 111.117 26.9374 111.117 28.9914C111.117 31.7411 110.074 33.8614 107.998 35.3412C105.912 36.821 102.882 37.5609 98.9086 37.5609H83.6816V5.80078H97.9985C101.65 5.80078 104.469 6.52963 106.455 7.97628C108.442 9.42294 109.441 11.4438 109.441 14.0058C109.441 15.6734 109.053 17.109 108.276 18.3127C107.499 19.5274 106.455 20.444 105.157 21.0845L105.146 21.0955Z" fill="#FDFDFE"/>
<path fill-rule="evenodd" clip-rule="evenodd" d="M209.416 5.80078H213.977V33.6074H231.258V37.5609H209.416V5.80078Z" fill="#FDFDFE"/>
<path fill-rule="evenodd" clip-rule="evenodd" d="M240.279 5.80078H244.841V33.6074H262.121V37.5609H240.279V5.80078Z" fill="#FDFDFE"/>
<path fill-rule="evenodd" clip-rule="evenodd" d="M13.4962 37.9143C9.24556 37.9143 5.92715 36.6995 3.5632 34.2811C1.18815 31.8626 0.0117188 28.384 0.0117188 23.8453V5.80078H4.56205V23.6796C4.56205 30.4822 7.55861 33.8835 13.5406 33.8835C16.4595 33.8835 18.6903 33.0442 20.244 31.3657C21.7978 29.6871 22.5747 27.1251 22.5747 23.6796V5.80078H26.9919V23.8563C26.9919 28.4282 25.8043 31.9068 23.4404 34.3142C21.0653 36.7216 17.758 37.9253 13.4962 37.9253" fill="#FDFDFE"/>
<path fill-rule="evenodd" clip-rule="evenodd" d="M290.111 25.9876L283.23 10.4278L276.349 25.9876H290.122H290.111ZM291.709 29.6208H274.751L271.243 37.5608H266.549L280.999 5.81177H285.516L300.01 37.5608H295.227L291.72 29.6208H291.709Z" fill="#FDFDFE"/>
<path fill-rule="evenodd" clip-rule="evenodd" d="M197.807 33.6074V37.5609H174.645V5.80078H197.163V9.75423H179.206V19.5053H195.21V23.3594H179.206V33.6074H197.807Z" fill="#FDFDFE"/>
<path fill-rule="evenodd" clip-rule="evenodd" d="M177.23 65.5C176.021 65.5 174.933 65.235 173.956 64.7049C172.98 64.1748 172.225 63.446 171.67 62.5184C171.115 61.5907 170.838 60.5416 170.838 59.3711C170.838 58.2005 171.115 57.1514 171.67 56.2238C172.225 55.2961 172.991 54.5673 173.967 54.0372C174.944 53.5071 176.032 53.2421 177.242 53.2421C178.218 53.2421 179.117 53.4078 179.927 53.7501C180.737 54.0924 181.414 54.5783 181.981 55.2299L180.549 56.5771C179.683 55.6495 178.618 55.1857 177.352 55.1857C176.531 55.1857 175.799 55.3624 175.144 55.7158C174.489 56.0692 173.99 56.5661 173.623 57.2066C173.257 57.8361 173.08 58.5649 173.08 59.36C173.08 60.1551 173.257 60.884 173.623 61.5134C173.99 62.1429 174.489 62.6398 175.144 63.0043C175.788 63.3576 176.531 63.5343 177.352 63.5343C178.618 63.5343 179.683 63.0595 180.549 62.1208L181.981 63.4791C181.426 64.1196 180.737 64.6166 179.927 64.9589C179.117 65.3012 178.218 65.4669 177.242 65.4669M198.095 61.1048V65.3012H195.876V61.138L191.181 53.4078H193.556L197.052 59.2054L200.592 53.4078H202.779L198.095 61.1048ZM159.684 53.4078V65.3012H157.853L151.26 57.2508V65.3012H149.052V53.4078H150.883L157.475 61.4582V53.4078H159.684ZM137.776 63.446V65.3012H128.808V53.4078H137.532V55.263H131.028V58.3551H136.799V60.1772H131.028V63.457H137.776V63.446ZM114.98 59.2165H117.077V63.954C116.467 64.4399 115.745 64.8153 114.924 65.0804C114.103 65.3454 113.259 65.4669 112.394 65.4669C111.173 65.4669 110.074 65.2018 109.098 64.6718C108.121 64.1417 107.355 63.4129 106.789 62.4852C106.234 61.5576 105.957 60.5085 105.957 59.3379C105.957 58.1674 106.234 57.1183 106.789 56.1906C107.344 55.263 108.121 54.5342 109.098 54.0041C110.085 53.474 111.195 53.209 112.416 53.209C113.415 53.209 114.325 53.3746 115.146 53.7059C115.967 54.0372 116.656 54.5121 117.21 55.1526L115.812 56.5109C114.902 55.6054 113.803 55.1526 112.516 55.1526C111.672 55.1526 110.929 55.3293 110.274 55.6827C109.619 56.036 109.109 56.5219 108.742 57.1624C108.376 57.7919 108.187 58.5207 108.187 59.3379C108.187 60.1551 108.376 60.8398 108.742 61.4803C109.109 62.1098 109.619 62.6178 110.274 62.9711C110.929 63.3356 111.672 63.5122 112.505 63.5122C113.437 63.5122 114.258 63.3135 114.969 62.9049V59.2054L114.98 59.2165ZM92.4056 60.8177L90.1526 55.6164L87.9107 60.8177H92.4056ZM93.1381 62.5515H87.156L85.9796 65.3012H83.6934L89.0761 53.4078H91.2624L96.6562 65.3012H94.3367L93.1381 62.5515Z" fill="#FDFDFE"/>
</g>
<defs>
<clipPath id="clip0_1100_7435">
<rect width="300" height="65" fill="white" transform="translate(0 0.5)"/>
</clipPath>
</defs>
</svg>
