<svg width="158" height="35" viewBox="0 0 158 35" fill="none" xmlns="http://www.w3.org/2000/svg">
<g clip-path="url(#clip0_868_4716)">
<path fill-rule="evenodd" clip-rule="evenodd" d="M73.9702 11.4645L68.201 5.59548C66.8508 7.30802 66.1786 9.38328 66.1786 11.4645C66.1786 13.5457 66.8508 15.621 68.201 17.3335L73.9702 11.4645ZM69.6389 4.13269L75.4081 10.0017L81.1773 4.13269C79.4939 2.75909 77.4539 2.07526 75.4081 2.07526C73.3623 2.07526 71.3223 2.75909 69.6389 4.13269ZM67.4412 19.5693C65.2434 17.3335 64.1387 14.396 64.1387 11.4645C64.1387 8.53296 65.2376 5.59548 67.4412 3.35967C69.6389 1.12385 72.5264 0 75.4081 0C78.2898 0 81.1773 1.11791 83.375 3.35967L84.094 4.09106L76.846 11.4645L82.9659 17.6903C83.2172 17.946 83.5504 18.0768 83.8836 18.0768C84.2167 18.0768 84.5499 17.946 84.8012 17.6903C85.0526 17.4286 85.1812 17.0897 85.1812 16.7567C85.1812 16.4237 85.0526 16.0788 84.8012 15.8172L86.2391 14.3603C86.888 15.0204 87.2153 15.8885 87.2153 16.7567C87.2153 17.6249 86.888 18.493 86.2391 19.1531C85.5903 19.8131 84.7369 20.1461 83.8836 20.1461C83.0302 20.1461 82.1768 19.8131 81.528 19.1531L75.4081 12.9273L68.1601 20.3007L67.4412 19.5693Z" fill="#231F20"/>
<path fill-rule="evenodd" clip-rule="evenodd" d="M34.8488 19.9561L34.8254 7.49856L28.7523 17.8749H27.6476L21.5745 7.56992V19.9561H19.2656V2.85449H21.2354L28.2496 14.872L35.1644 2.85449H37.1342L37.1576 19.9561H34.8488Z" fill="#231F20"/>
<path fill-rule="evenodd" clip-rule="evenodd" d="M51.9924 17.976C53.3543 17.976 54.3772 17.75 55.067 17.2921C55.7567 16.8343 56.1016 16.1207 56.1016 15.1455C56.1016 13.2427 54.7338 12.2853 51.9983 12.2853H46.4746V17.976H51.9983H51.9924ZM46.4688 4.83461V10.3052H51.3904C52.6237 10.3052 53.5706 10.0733 54.237 9.6095C54.9033 9.14569 55.2306 8.46781 55.2306 7.56992C55.2306 6.67203 54.8975 5.99415 54.237 5.53033C53.5706 5.06652 52.6237 4.83461 51.3904 4.83461H46.4688ZM55.3768 11.0901C56.3529 11.3696 57.1186 11.8691 57.6798 12.5946C58.2409 13.32 58.5215 14.2357 58.5215 15.3418C58.5215 16.8224 57.972 17.9641 56.879 18.7609C55.7801 19.5577 54.1844 19.9561 52.0918 19.9561H44.0723V2.85449H51.6125C53.5355 2.85449 55.0202 3.24695 56.0665 4.02592C57.1128 4.80488 57.6388 5.89306 57.6388 7.2726C57.6388 8.1705 57.4343 8.94352 57.0251 9.59167C56.6159 10.2458 56.0665 10.7393 55.3826 11.0842L55.3768 11.0901Z" fill="#231F20"/>
<path fill-rule="evenodd" clip-rule="evenodd" d="M110.293 2.85449H112.695V17.8273H121.796V19.9561H110.293V2.85449Z" fill="#231F20"/>
<path fill-rule="evenodd" clip-rule="evenodd" d="M126.547 2.85449H128.949V17.8273H138.05V19.9561H126.547V2.85449Z" fill="#231F20"/>
<path fill-rule="evenodd" clip-rule="evenodd" d="M7.10771 20.1464C4.86902 20.1464 3.12132 19.4923 1.8763 18.19C0.625444 16.8878 0.00585938 15.0147 0.00585938 12.5708V2.85449H2.40237V12.4816C2.40237 16.1445 3.98056 17.976 7.13109 17.976C8.66836 17.976 9.84323 17.524 10.6616 16.6202C11.4799 15.7164 11.889 14.3368 11.889 12.4816V2.85449H14.2154V12.5767C14.2154 15.0385 13.59 16.9116 12.345 18.2079C11.0941 19.5042 9.35224 20.1523 7.10771 20.1523" fill="#231F20"/>
<path fill-rule="evenodd" clip-rule="evenodd" d="M152.792 13.7243L149.168 5.34591L145.544 13.7243H152.798H152.792ZM153.634 15.6806H144.702L142.855 19.956H140.383L147.993 2.86035H150.372L158.006 19.956H155.487L153.64 15.6806H153.634Z" fill="#231F20"/>
<path fill-rule="evenodd" clip-rule="evenodd" d="M104.177 17.8273V19.9561H91.9785V2.85449H103.838V4.98327H94.3809V10.2339H102.81V12.3091H94.3809V17.8273H104.177Z" fill="#231F20"/>
<path fill-rule="evenodd" clip-rule="evenodd" d="M93.341 35.0001C92.7038 35.0001 92.131 34.8574 91.6166 34.5719C91.1023 34.2865 90.7048 33.8941 90.4125 33.3946C90.1203 32.8951 89.9742 32.3302 89.9742 31.6999C89.9742 31.0696 90.1203 30.5047 90.4125 30.0052C90.7048 29.5057 91.1081 29.1132 91.6225 28.8278C92.1369 28.5424 92.7097 28.3997 93.3468 28.3997C93.8612 28.3997 94.3346 28.4889 94.7613 28.6732C95.188 28.8575 95.5446 29.1192 95.8427 29.47L95.0887 30.1955C94.6327 29.696 94.0716 29.4462 93.4053 29.4462C92.9727 29.4462 92.5869 29.5414 92.2421 29.7316C91.8972 29.9219 91.6342 30.1895 91.4413 30.5344C91.2484 30.8733 91.1549 31.2658 91.1549 31.6939C91.1549 32.1221 91.2484 32.5145 91.4413 32.8535C91.6342 33.1924 91.8972 33.46 92.2421 33.6562C92.5811 33.8465 92.9727 33.9416 93.4053 33.9416C94.0716 33.9416 94.6327 33.6859 95.0887 33.1805L95.8427 33.9119C95.5504 34.2568 95.188 34.5244 94.7613 34.7087C94.3346 34.893 93.8612 34.9822 93.3468 34.9822M104.33 32.6335V34.893H103.161V32.6513L100.688 28.4889H101.939L103.78 31.6107L105.645 28.4889H106.796L104.33 32.6335ZM84.0998 28.4889V34.893H83.1353L79.6633 30.5582V34.893H78.5002V28.4889H79.4646L82.9366 32.8237V28.4889H84.0998ZM72.5615 33.8941V34.893H67.8386V28.4889H72.4329V29.4879H69.0076V31.1528H72.0471V32.134H69.0076V33.9H72.5615V33.8941ZM60.5556 31.6166H61.6603V34.1676C61.3388 34.4292 60.9589 34.6314 60.5264 34.7741C60.0938 34.9168 59.6496 34.9822 59.1937 34.9822C58.5507 34.9822 57.972 34.8395 57.4577 34.5541C56.9433 34.2687 56.54 33.8762 56.2419 33.3767C55.9496 32.8772 55.8035 32.3123 55.8035 31.682C55.8035 31.0517 55.9496 30.4868 56.2419 29.9873C56.5341 29.4879 56.9433 29.0954 57.4577 28.81C57.9779 28.5245 58.5624 28.3818 59.2053 28.3818C59.7314 28.3818 60.2107 28.471 60.6432 28.6494C61.0758 28.8278 61.4382 29.0835 61.7304 29.4284L60.994 30.1598C60.5147 29.6722 59.936 29.4284 59.258 29.4284C58.8137 29.4284 58.4221 29.5235 58.0772 29.7138C57.7324 29.9041 57.4635 30.1657 57.2706 30.5106C57.0777 30.8496 56.9783 31.242 56.9783 31.682C56.9783 32.1221 57.0777 32.4907 57.2706 32.8356C57.4635 33.1746 57.7324 33.4481 58.0772 33.6384C58.4221 33.8346 58.8137 33.9297 59.2521 33.9297C59.7431 33.9297 60.1756 33.8227 60.5497 33.6027V31.6107L60.5556 31.6166ZM48.6666 32.4788L47.48 29.6781L46.2993 32.4788H48.6666ZM49.0523 33.4124H45.9018L45.2822 34.893H44.0781L46.913 28.4889H48.0645L50.9052 34.893H49.6836L49.0523 33.4124Z" fill="#231F20"/>
</g>
<defs>
<clipPath id="clip0_868_4716">
<rect width="158" height="35" fill="white"/>
</clipPath>
</defs>
</svg>
