<svg width="47" height="41" viewBox="0 0 47 41" fill="none" xmlns="http://www.w3.org/2000/svg">
<path d="M13.104 21.456C15.024 22.128 16.512 23.232 17.568 24.768C18.624 26.304 19.152 28.176 19.152 30.384C19.152 33.264 18.24 35.616 16.416 37.44C14.592 39.264 12.336 40.176 9.648 40.176C6.864 40.176 4.56 39.264 2.736 37.44C0.912 35.52 0 33.168 0 30.384C0 29.04 0.144 27.696 0.432 26.352C0.816 24.912 1.536 22.848 2.592 20.16L9.36 0H18.432L13.104 21.456ZM40.32 21.456C42.24 22.128 43.728 23.232 44.784 24.768C45.84 26.304 46.368 28.176 46.368 30.384C46.368 33.264 45.456 35.616 43.632 37.44C41.808 39.264 39.552 40.176 36.864 40.176C34.08 40.176 31.776 39.264 29.952 37.44C28.128 35.52 27.216 33.168 27.216 30.384C27.216 29.04 27.36 27.696 27.648 26.352C28.032 24.912 28.752 22.848 29.808 20.16L36.576 0H45.648L40.32 21.456Z" fill="#AABCD0"/>
</svg>
