<svg width="216" height="36" viewBox="0 0 216 36" fill="none" xmlns="http://www.w3.org/2000/svg">
<path d="M16.6684 2.13274C17.0155 1.32678 18.1582 1.32678 18.5053 2.13274L22.1071 10.4966C22.2519 10.8328 22.5688 11.063 22.9333 11.0968L32.0008 11.9378C32.8745 12.0188 33.2277 13.1056 32.5684 13.6848L25.727 19.6949C25.452 19.9365 25.3309 20.309 25.4114 20.666L27.4136 29.5496C27.6065 30.4057 26.682 31.0774 25.9275 30.6293L18.0974 25.98C17.7827 25.7931 17.391 25.7931 17.0763 25.98L9.2462 30.6293C8.49167 31.0774 7.56717 30.4057 7.76011 29.5496L9.7623 20.666C9.84277 20.309 9.72174 19.9365 9.44676 19.6949L2.6053 13.6848C1.94604 13.1056 2.29917 12.0188 3.17294 11.9378L12.2405 11.0968C12.6049 11.063 12.9218 10.8328 13.0666 10.4966L16.6684 2.13274Z" fill="#E39F1D"/>
<path d="M61.8422 2.13274C62.1893 1.32678 63.3321 1.32678 63.6791 2.13274L67.281 10.4966C67.4257 10.8328 67.7426 11.063 68.1071 11.0968L77.1746 11.9378C78.0484 12.0188 78.4015 13.1056 77.7422 13.6848L70.9008 19.6949C70.6258 19.9365 70.5048 20.309 70.5852 20.666L72.5874 29.5496C72.7804 30.4057 71.8559 31.0774 71.1013 30.6293L63.2712 25.98C62.9565 25.7931 62.5648 25.7931 62.2501 25.98L54.42 30.6293C53.6655 31.0774 52.741 30.4057 52.9339 29.5496L54.9361 20.666C55.0166 20.309 54.8956 19.9365 54.6206 19.6949L47.7791 13.6848C47.1199 13.1056 47.473 12.0188 48.3468 11.9378L57.4143 11.0968C57.7787 11.063 58.0956 10.8328 58.2404 10.4966L61.8422 2.13274Z" fill="#E39F1D"/>
<path d="M107.016 2.13274C107.363 1.32678 108.506 1.32678 108.853 2.13274L112.455 10.4966C112.6 10.8328 112.916 11.063 113.281 11.0968L122.348 11.9378C123.222 12.0188 123.575 13.1056 122.916 13.6848L116.075 19.6949C115.8 19.9365 115.679 20.309 115.759 20.666L117.761 29.5496C117.954 30.4057 117.03 31.0774 116.275 30.6293L108.445 25.98C108.13 25.7931 107.739 25.7931 107.424 25.98L99.5939 30.6293C98.8393 31.0774 97.9148 30.4057 98.1078 29.5496L100.11 20.666C100.19 20.309 100.069 19.9365 99.7944 19.6949L92.953 13.6848C92.2937 13.1056 92.6468 12.0188 93.5206 11.9378L102.588 11.0968C102.953 11.063 103.269 10.8328 103.414 10.4966L107.016 2.13274Z" fill="#E39F1D"/>
<path d="M152.189 2.13274C152.536 1.32678 153.679 1.32678 154.026 2.13274L157.628 10.4966C157.773 10.8328 158.09 11.063 158.454 11.0968L167.522 11.9378C168.396 12.0188 168.749 13.1056 168.089 13.6848L161.248 19.6949C160.973 19.9365 160.852 20.309 160.932 20.666L162.935 29.5496C163.128 30.4057 162.203 31.0774 161.449 30.6293L153.618 25.98C153.304 25.7931 152.912 25.7931 152.597 25.98L144.767 30.6293C144.013 31.0774 143.088 30.4057 143.281 29.5496L145.283 20.666C145.364 20.309 145.243 19.9365 144.968 19.6949L138.126 13.6848C137.467 13.1056 137.82 12.0188 138.694 11.9378L147.761 11.0968C148.126 11.063 148.443 10.8328 148.588 10.4966L152.189 2.13274Z" fill="#E39F1D"/>
<path d="M197.363 2.13274C197.71 1.32678 198.853 1.32678 199.2 2.13274L202.802 10.4966C202.947 10.8328 203.264 11.063 203.628 11.0968L212.696 11.9378C213.569 12.0188 213.922 13.1056 213.263 13.6848L206.422 19.6949C206.147 19.9365 206.026 20.309 206.106 20.666L208.108 29.5496C208.301 30.4057 207.377 31.0774 206.622 30.6293L198.792 25.98C198.478 25.7931 198.086 25.7931 197.771 25.98L189.941 30.6293C189.186 31.0774 188.262 30.4057 188.455 29.5496L190.457 20.666C190.538 20.309 190.417 19.9365 190.142 19.6949L183.3 13.6848C182.641 13.1056 182.994 12.0188 183.868 11.9378L192.935 11.0968C193.3 11.063 193.617 10.8328 193.761 10.4966L197.363 2.13274Z" fill="#E39F1D"/>
</svg>
