<svg width="536" height="696" viewBox="0 0 536 696" fill="none" xmlns="http://www.w3.org/2000/svg">
<g clip-path="url(#clip0_667_4810)">
<mask id="mask0_667_4810" style="mask-type:alpha" maskUnits="userSpaceOnUse" x="-14" y="-30" width="550" height="726">
<rect x="-13.0586" y="-30" width="549" height="726" fill="url(#paint0_linear_667_4810)"/>
</mask>
<g mask="url(#mask0_667_4810)">
<g opacity="0.2">
<g filter="url(#filter0_d_667_4810)">
<path d="M-127.884 696L-128.502 695.487C-146.419 680.42 -163.188 663.585 -178.313 645.423C-236.959 574.863 -269.26 485.451 -269.26 393.67C-269.26 301.888 -236.624 211.486 -177.377 140.873C-162.234 122.711 -145.412 105.893 -127.353 90.9149C-56.9392 32.2915 32.3641 0 124.088 0C215.812 0 305.204 32.2915 375.636 90.9149C393.464 105.805 410.322 122.605 425.765 140.873L426.277 141.492L425.712 142.058L375.706 192.104L175.242 392.626L389.012 606.571C397.158 613.98 407.777 618.083 418.909 618.083C443.558 618.083 463.614 598.011 463.614 573.342H465.363C465.363 598.984 444.53 619.834 418.909 619.834C407.335 619.834 396.292 615.572 387.792 607.844L172.768 392.644L173.387 392.025L374.469 190.884L423.91 141.403C408.678 123.454 392.069 106.919 374.522 92.2766C304.409 33.9008 215.459 1.75074 124.088 1.75074C32.7175 1.75074 -56.1264 33.9008 -126.24 92.2589C-144.21 107.184 -160.961 123.914 -176.034 141.987C-235.033 212.3 -267.51 301.676 -267.51 393.67C-267.51 485.663 -235.351 574.049 -176.97 644.309C-162.075 662.17 -145.606 678.758 -127.99 693.63L-78.5494 644.15L60.4237 505.134L61.6606 506.372L-77.3125 645.388L-127.884 696.018V696ZM418.909 690.323C408.077 690.323 397.387 688.82 387.103 685.849C368.038 680.579 350.474 670.287 336.303 656.104L230.248 549.963L124.194 443.822L115.907 452.116L114.67 450.878L124.194 441.346L230.867 548.106L337.539 654.866C351.481 668.837 368.797 678.952 387.58 684.152C397.705 687.069 408.236 688.555 418.909 688.555V690.306V690.323ZM501.674 656.051L500.438 654.813C522.171 633.079 534.152 604.148 534.152 573.342C534.152 542.536 523.108 515.921 503.035 494.682C502.381 493.957 501.692 493.25 500.985 492.542L451.793 541.775L450.556 540.538L500.985 490.067L501.604 490.686C502.54 491.623 503.477 492.56 504.325 493.515C524.681 515.072 535.901 543.438 535.901 573.36C535.901 603.281 523.744 634.017 501.674 656.069V656.051ZM-127.795 596.119L-128.396 595.359C-173.878 538.309 -198.916 466.688 -198.916 393.67C-198.916 320.651 -173.542 248.057 -127.459 190.849L-126.859 190.088L75.5314 392.644L-127.795 596.137V596.119ZM-126.717 192.706C-172.146 249.49 -197.167 320.81 -197.167 393.67C-197.167 466.529 -172.482 536.877 -127.636 593.502L73.0576 392.644L-126.735 192.688L-126.717 192.706ZM124.194 344.03L123.576 343.411L-78.1077 141.563L-77.3479 140.944C-20.4687 95.442 51.0587 70.3657 124.07 70.3657C197.082 70.3657 268.592 95.4243 325.595 140.944L326.354 141.545L124.176 343.995L124.194 344.03ZM-75.4749 141.722L124.194 341.554L323.757 141.722C267.196 96.8391 196.322 72.1342 124.088 72.1342C51.8539 72.1342 -19.0375 96.8391 -75.4749 141.722Z" fill="white"/>
</g>
</g>
</g>
</g>
<defs>
<filter id="filter0_d_667_4810" x="-284.26" y="-15" width="835.16" height="726.018" filterUnits="userSpaceOnUse" color-interpolation-filters="sRGB">
<feFlood flood-opacity="0" result="BackgroundImageFix"/>
<feColorMatrix in="SourceAlpha" type="matrix" values="0 0 0 0 0 0 0 0 0 0 0 0 0 0 0 0 0 0 127 0" result="hardAlpha"/>
<feOffset/>
<feGaussianBlur stdDeviation="7.5"/>
<feComposite in2="hardAlpha" operator="out"/>
<feColorMatrix type="matrix" values="0 0 0 0 1 0 0 0 0 1 0 0 0 0 1 0 0 0 0.85 0"/>
<feBlend mode="normal" in2="BackgroundImageFix" result="effect1_dropShadow_667_4810"/>
<feBlend mode="normal" in="SourceGraphic" in2="effect1_dropShadow_667_4810" result="shape"/>
</filter>
<linearGradient id="paint0_linear_667_4810" x1="-13.0586" y1="141" x2="535.941" y2="141" gradientUnits="userSpaceOnUse">
<stop stop-color="#D9D9D9" stop-opacity="0"/>
<stop offset="0.192645" stop-color="#737373"/>
</linearGradient>
<clipPath id="clip0_667_4810">
<rect width="534.942" height="696" fill="white" transform="translate(0.941406)"/>
</clipPath>
</defs>
</svg>
