<svg width="535" height="696" viewBox="0 0 535 696" fill="none" xmlns="http://www.w3.org/2000/svg">
<g clip-path="url(#clip0_667_4795)">
<mask id="mask0_667_4795" style="mask-type:alpha" maskUnits="userSpaceOnUse" x="-14" y="-30" width="549" height="726">
<rect x="-14" y="-30" width="549" height="726" fill="url(#paint0_linear_667_4795)"/>
</mask>
<g mask="url(#mask0_667_4795)">
<g opacity="0.8">
<g filter="url(#filter0_d_667_4795)">
<path d="M388.069 606.571L174.3 392.626L171.826 392.644L386.85 607.844C395.349 615.572 406.393 619.834 417.967 619.834C443.588 619.834 464.421 598.984 464.421 573.342H462.671C462.671 598.011 442.616 618.083 417.967 618.083C406.835 618.083 396.215 613.98 388.069 606.571Z" fill="white"/>
</g>
<g filter="url(#filter1_d_667_4795)">
<path d="M386.515 685.494C396.799 688.465 407.489 689.969 418.321 689.969V689.951V688.2C407.648 688.2 397.117 686.715 386.992 683.797C368.209 678.598 350.893 668.482 336.951 654.512L230.279 547.752L123.606 440.992L114.082 450.524L115.319 451.761L123.606 443.468L229.66 549.609L335.714 655.75C349.886 669.932 367.449 680.225 386.515 685.494Z" fill="white"/>
</g>
</g>
</g>
</g>
<defs>
<filter id="filter0_d_667_4795" x="160.826" y="381.626" width="314.594" height="249.208" filterUnits="userSpaceOnUse" color-interpolation-filters="sRGB">
<feFlood flood-opacity="0" result="BackgroundImageFix"/>
<feColorMatrix in="SourceAlpha" type="matrix" values="0 0 0 0 0 0 0 0 0 0 0 0 0 0 0 0 0 0 127 0" result="hardAlpha"/>
<feOffset/>
<feGaussianBlur stdDeviation="5.5"/>
<feComposite in2="hardAlpha" operator="out"/>
<feColorMatrix type="matrix" values="0 0 0 0 1 0 0 0 0 1 0 0 0 0 1 0 0 0 1 0"/>
<feBlend mode="normal" in2="BackgroundImageFix" result="effect1_dropShadow_667_4795"/>
<feBlend mode="normal" in="SourceGraphic" in2="effect1_dropShadow_667_4795" result="shape"/>
</filter>
<filter id="filter1_d_667_4795" x="103.082" y="429.992" width="326.238" height="270.977" filterUnits="userSpaceOnUse" color-interpolation-filters="sRGB">
<feFlood flood-opacity="0" result="BackgroundImageFix"/>
<feColorMatrix in="SourceAlpha" type="matrix" values="0 0 0 0 0 0 0 0 0 0 0 0 0 0 0 0 0 0 127 0" result="hardAlpha"/>
<feOffset/>
<feGaussianBlur stdDeviation="5.5"/>
<feComposite in2="hardAlpha" operator="out"/>
<feColorMatrix type="matrix" values="0 0 0 0 1 0 0 0 0 1 0 0 0 0 1 0 0 0 1 0"/>
<feBlend mode="normal" in2="BackgroundImageFix" result="effect1_dropShadow_667_4795"/>
<feBlend mode="normal" in="SourceGraphic" in2="effect1_dropShadow_667_4795" result="shape"/>
</filter>
<linearGradient id="paint0_linear_667_4795" x1="-14" y1="141" x2="535" y2="141" gradientUnits="userSpaceOnUse">
<stop stop-color="#D9D9D9" stop-opacity="0"/>
<stop offset="0.192645" stop-color="#737373"/>
</linearGradient>
<clipPath id="clip0_667_4795">
<rect width="534.942" height="696" fill="white"/>
</clipPath>
</defs>
</svg>
