<svg width="535" height="696" viewBox="0 0 535 696" fill="none" xmlns="http://www.w3.org/2000/svg">
<g clip-path="url(#clip0_667_4797)">
<g opacity="0.8" filter="url(#filter0_d_667_4797)">
<path d="M123.147 0C31.4226 0 -57.8807 32.2915 -128.295 90.9148L-127.182 92.2588C-57.0679 33.9007 31.776 1.75074 123.147 1.75074C214.517 1.75074 303.467 33.9008 373.581 92.2765C391.127 106.919 407.737 123.454 422.968 141.403L425.336 141.492L424.823 140.873C409.38 122.605 392.523 105.805 374.694 90.9148C304.262 32.2915 214.871 0 123.147 0Z" fill="white"/>
<path d="M-78.2893 140.944L-79.0491 141.563L-76.3914 141.702C-19.9581 96.8318 50.923 72.1341 123.147 72.1341C195.381 72.1341 266.254 96.8391 322.816 141.722L325.413 141.545L324.653 140.944C267.65 95.4243 196.141 70.3657 123.129 70.3657C50.1173 70.3657 -21.4102 95.442 -78.2893 140.944Z" fill="white"/>
</g>
</g>
<defs>
<filter id="filter0_d_667_4797" x="-143.295" y="-15" width="583.631" height="171.722" filterUnits="userSpaceOnUse" color-interpolation-filters="sRGB">
<feFlood flood-opacity="0" result="BackgroundImageFix"/>
<feColorMatrix in="SourceAlpha" type="matrix" values="0 0 0 0 0 0 0 0 0 0 0 0 0 0 0 0 0 0 127 0" result="hardAlpha"/>
<feOffset/>
<feGaussianBlur stdDeviation="7.5"/>
<feComposite in2="hardAlpha" operator="out"/>
<feColorMatrix type="matrix" values="0 0 0 0 1 0 0 0 0 1 0 0 0 0 1 0 0 0 0.85 0"/>
<feBlend mode="normal" in2="BackgroundImageFix" result="effect1_dropShadow_667_4797"/>
<feBlend mode="normal" in="SourceGraphic" in2="effect1_dropShadow_667_4797" result="shape"/>
</filter>
<clipPath id="clip0_667_4797">
<rect width="534.942" height="696" fill="white"/>
</clipPath>
</defs>
</svg>
